<svg width="126" height="314" viewBox="0 0 126 314" fill="none" xmlns="http://www.w3.org/2000/svg">
<g clip-path="url(#clip0)">
<path d="M6.99985 483.113C6.99985 481.18 5.43283 479.613 3.49985 479.613C1.56686 479.613 -0.000152113 481.18 -0.000152282 483.113C-0.000152451 485.046 1.56686 486.613 3.49985 486.613C5.43283 486.613 6.99985 485.046 6.99985 483.113Z" fill="#93EA20"/>
<path d="M6.99985 456.46C6.99985 454.527 5.43283 452.96 3.49985 452.96C1.56687 452.96 -0.000149783 454.527 -0.000149952 456.46C-0.000150121 458.392 1.56687 459.96 3.49985 459.96C5.43283 459.96 6.99985 458.392 6.99985 456.46Z" fill="#93EA20"/>
<path d="M6.99985 429.806C6.99985 427.873 5.43284 426.306 3.49985 426.306C1.56687 426.306 -0.000147453 427.873 -0.000147622 429.806C-0.000147791 431.739 1.56687 433.306 3.49985 433.306C5.43284 433.306 6.99985 431.739 6.99985 429.806Z" fill="#93EA20"/>
<path d="M6.99985 403.153C6.99985 401.22 5.43284 399.653 3.49986 399.653C1.56687 399.653 -0.000145123 401.22 -0.000145292 403.153C-0.000145461 405.086 1.56687 406.653 3.49985 406.653C5.43284 406.653 6.99985 405.086 6.99985 403.153Z" fill="#93EA20"/>
<path d="M6.99986 376.5C6.99986 374.567 5.43284 373 3.49986 373C1.56687 373 -0.000142793 374.567 -0.000142962 376.5C-0.000143131 378.433 1.56687 380 3.49986 380C5.43284 380 6.99986 378.433 6.99986 376.5Z" fill="#93EA20"/>
<path d="M6.99986 349.847C6.99986 347.914 5.43284 346.347 3.49986 346.347C1.56688 346.347 -0.000140462 347.914 -0.000140631 349.847C-0.0001408 351.78 1.56688 353.347 3.49986 353.347C5.43284 353.347 6.99986 351.78 6.99986 349.847Z" fill="#93EA20"/>
<path d="M6.99986 323.194C6.99986 321.261 5.43285 319.694 3.49986 319.694C1.56688 319.694 -0.000138132 321.261 -0.000138301 323.194C-0.00013847 325.127 1.56688 326.694 3.49986 326.694C5.43284 326.694 6.99986 325.127 6.99986 323.194Z" fill="#93EA20"/>
<path d="M6.99986 296.541C6.99986 294.608 5.43285 293.041 3.49986 293.041C1.56688 293.041 -0.000135802 294.608 -0.000135971 296.541C-0.00013614 298.474 1.56688 300.041 3.49986 300.041C5.43285 300.041 6.99986 298.474 6.99986 296.541Z" fill="#93EA20"/>
<path d="M6.99987 269.888C6.99987 267.955 5.43285 266.388 3.49987 266.388C1.56688 266.388 -0.000133472 267.955 -0.000133641 269.888C-0.00013381 271.821 1.56688 273.388 3.49987 273.388C5.43285 273.388 6.99987 271.821 6.99987 269.888Z" fill="#93EA20"/>
<path d="M6.99987 243.234C6.99987 241.301 5.43285 239.734 3.49987 239.734C1.56689 239.734 -0.000131142 241.301 -0.000131311 243.234C-0.00013148 245.167 1.56688 246.734 3.49987 246.734C5.43285 246.734 6.99987 245.167 6.99987 243.234Z" fill="#93EA20"/>
<path d="M6.99987 216.581C6.99987 214.648 5.43285 213.081 3.49987 213.081C1.56689 213.081 -0.000128812 214.648 -0.000128981 216.581C-0.00012915 218.514 1.56689 220.081 3.49987 220.081C5.43285 220.081 6.99987 218.514 6.99987 216.581Z" fill="#93EA20"/>
<path d="M6.99987 189.928C6.99987 187.995 5.43286 186.428 3.49987 186.428C1.56689 186.428 -0.000126482 187.995 -0.000126651 189.928C-0.00012682 191.861 1.56689 193.428 3.49987 193.428C5.43286 193.428 6.99987 191.861 6.99987 189.928Z" fill="#93EA20"/>
<path d="M6.99988 163.275C6.99988 161.342 5.43286 159.775 3.49988 159.775C1.56689 159.775 -0.000124152 161.342 -0.000124321 163.275C-0.00012449 165.208 1.56689 166.775 3.49988 166.775C5.43286 166.775 6.99988 165.208 6.99988 163.275Z" fill="#93EA20"/>
<path d="M6.99988 136.622C6.99988 134.689 5.43286 133.122 3.49988 133.122C1.56689 133.122 -0.000121822 134.689 -0.000121991 136.622C-0.00012216 138.555 1.56689 140.122 3.49988 140.122C5.43286 140.122 6.99988 138.555 6.99988 136.622Z" fill="#93EA20"/>
<path d="M6.99991 110.146C6.99991 108.213 5.43289 106.646 3.49991 106.646C1.56693 106.646 -8.89896e-05 108.213 -8.91586e-05 110.146C-8.93276e-05 112.079 1.56693 113.646 3.49991 113.646C5.43289 113.646 6.99991 112.079 6.99991 110.146Z" fill="#93EA20"/>
<path d="M33.8122 483.112C33.8122 481.179 32.2452 479.612 30.3122 479.612C28.3792 479.612 26.8122 481.179 26.8122 483.112C26.8122 485.045 28.3792 486.612 30.3122 486.612C32.2452 486.612 33.8122 485.045 33.8122 483.112Z" fill="#93EA20"/>
<path d="M33.8122 456.46C33.8122 454.527 32.2452 452.96 30.3122 452.96C28.3792 452.96 26.8122 454.527 26.8122 456.46C26.8122 458.392 28.3792 459.96 30.3122 459.96C32.2452 459.96 33.8122 458.393 33.8122 456.46Z" fill="#93EA20"/>
<path d="M33.8122 429.806C33.8122 427.873 32.2452 426.306 30.3122 426.306C28.3792 426.306 26.8122 427.873 26.8122 429.806C26.8122 431.739 28.3792 433.306 30.3122 433.306C32.2452 433.306 33.8122 431.739 33.8122 429.806Z" fill="#93EA20"/>
<path d="M33.8122 403.153C33.8122 401.22 32.2452 399.653 30.3122 399.653C28.3792 399.653 26.8122 401.22 26.8122 403.153C26.8122 405.086 28.3792 406.653 30.3122 406.653C32.2452 406.653 33.8122 405.086 33.8122 403.153Z" fill="#93EA20"/>
<path d="M33.8122 376.5C33.8122 374.567 32.2452 373 30.3122 373C28.3792 373 26.8122 374.567 26.8122 376.5C26.8122 378.433 28.3792 380 30.3122 380C32.2452 380 33.8122 378.433 33.8122 376.5Z" fill="#93EA20"/>
<path d="M33.8122 349.847C33.8122 347.914 32.2452 346.347 30.3122 346.347C28.3792 346.347 26.8122 347.914 26.8122 349.847C26.8122 351.78 28.3792 353.347 30.3122 353.347C32.2452 353.347 33.8122 351.78 33.8122 349.847Z" fill="#93EA20"/>
<path d="M33.8122 323.194C33.8122 321.261 32.2452 319.694 30.3122 319.694C28.3792 319.694 26.8122 321.261 26.8122 323.194C26.8122 325.127 28.3792 326.694 30.3122 326.694C32.2452 326.694 33.8122 325.127 33.8122 323.194Z" fill="#93EA20"/>
<path d="M33.8122 296.541C33.8122 294.608 32.2452 293.041 30.3122 293.041C28.3792 293.041 26.8122 294.608 26.8122 296.541C26.8122 298.474 28.3792 300.041 30.3122 300.041C32.2452 300.041 33.8122 298.474 33.8122 296.541Z" fill="#93EA20"/>
<path d="M33.8122 269.888C33.8122 267.955 32.2452 266.388 30.3122 266.388C28.3792 266.388 26.8122 267.955 26.8122 269.888C26.8122 271.821 28.3792 273.388 30.3122 273.388C32.2452 273.388 33.8122 271.821 33.8122 269.888Z" fill="#93EA20"/>
<path d="M33.8122 243.234C33.8122 241.301 32.2452 239.734 30.3122 239.734C28.3792 239.734 26.8122 241.301 26.8122 243.234C26.8122 245.167 28.3792 246.734 30.3122 246.734C32.2452 246.734 33.8122 245.167 33.8122 243.234Z" fill="#93EA20"/>
<path d="M33.8122 216.581C33.8122 214.648 32.2452 213.081 30.3122 213.081C28.3793 213.081 26.8122 214.648 26.8122 216.581C26.8122 218.514 28.3793 220.081 30.3122 220.081C32.2452 220.081 33.8122 218.514 33.8122 216.581Z" fill="#93EA20"/>
<path d="M33.8123 189.928C33.8123 187.995 32.2452 186.428 30.3123 186.428C28.3793 186.428 26.8123 187.995 26.8123 189.928C26.8123 191.861 28.3793 193.428 30.3123 193.428C32.2452 193.428 33.8123 191.861 33.8123 189.928Z" fill="#93EA20"/>
<path d="M33.8123 163.275C33.8123 161.342 32.2452 159.775 30.3123 159.775C28.3793 159.775 26.8123 161.342 26.8123 163.275C26.8123 165.208 28.3793 166.775 30.3123 166.775C32.2452 166.775 33.8123 165.208 33.8123 163.275Z" fill="#93EA20"/>
<path d="M33.8123 136.622C33.8123 134.689 32.2452 133.122 30.3123 133.122C28.3793 133.122 26.8123 134.689 26.8123 136.622C26.8123 138.555 28.3793 140.122 30.3123 140.122C32.2452 140.122 33.8123 138.555 33.8123 136.622Z" fill="#93EA20"/>
<path d="M33.8123 110.146C33.8123 108.213 32.2452 106.646 30.3123 106.646C28.3793 106.646 26.8123 108.213 26.8123 110.146C26.8123 112.079 28.3793 113.646 30.3123 113.646C32.2452 113.646 33.8123 112.079 33.8123 110.146Z" fill="#93EA20"/>
<path d="M60.4467 483.112C60.4467 481.179 58.8796 479.612 56.9467 479.612C55.0137 479.612 53.4467 481.179 53.4467 483.112C53.4467 485.045 55.0137 486.612 56.9467 486.612C58.8796 486.612 60.4467 485.045 60.4467 483.112Z" fill="#93EA20"/>
<path d="M60.4466 456.46C60.4466 454.527 58.8796 452.96 56.9466 452.96C55.0136 452.96 53.4466 454.527 53.4466 456.46C53.4466 458.392 55.0136 459.96 56.9466 459.96C58.8796 459.96 60.4466 458.393 60.4466 456.46Z" fill="#93EA20"/>
<path d="M60.4466 429.806C60.4466 427.873 58.8796 426.306 56.9466 426.306C55.0136 426.306 53.4466 427.873 53.4466 429.806C53.4466 431.739 55.0136 433.306 56.9466 433.306C58.8796 433.306 60.4466 431.739 60.4466 429.806Z" fill="#93EA20"/>
<path d="M60.4466 403.153C60.4466 401.22 58.8796 399.653 56.9466 399.653C55.0136 399.653 53.4466 401.22 53.4466 403.153C53.4466 405.086 55.0136 406.653 56.9466 406.653C58.8796 406.653 60.4466 405.086 60.4466 403.153Z" fill="#93EA20"/>
<path d="M60.4467 376.5C60.4467 374.567 58.8796 373 56.9467 373C55.0137 373 53.4467 374.567 53.4467 376.5C53.4467 378.433 55.0137 380 56.9467 380C58.8796 380 60.4467 378.433 60.4467 376.5Z" fill="#93EA20"/>
<path d="M60.4466 349.847C60.4466 347.914 58.8796 346.347 56.9466 346.347C55.0137 346.347 53.4466 347.914 53.4466 349.847C53.4466 351.78 55.0137 353.347 56.9466 353.347C58.8796 353.347 60.4466 351.78 60.4466 349.847Z" fill="#93EA20"/>
<path d="M60.4466 323.194C60.4466 321.261 58.8796 319.694 56.9466 319.694C55.0137 319.694 53.4466 321.261 53.4466 323.194C53.4466 325.127 55.0137 326.694 56.9466 326.694C58.8796 326.694 60.4466 325.127 60.4466 323.194Z" fill="#93EA20"/>
<path d="M60.4466 296.541C60.4466 294.608 58.8796 293.041 56.9466 293.041C55.0137 293.041 53.4466 294.608 53.4466 296.541C53.4466 298.474 55.0137 300.041 56.9466 300.041C58.8796 300.041 60.4466 298.474 60.4466 296.541Z" fill="#93EA20"/>
<path d="M60.4467 269.888C60.4467 267.955 58.8797 266.388 56.9467 266.388C55.0137 266.388 53.4467 267.955 53.4467 269.888C53.4467 271.821 55.0137 273.388 56.9467 273.388C58.8797 273.388 60.4467 271.821 60.4467 269.888Z" fill="#93EA20"/>
<path d="M60.4466 243.234C60.4466 241.301 58.8796 239.734 56.9466 239.734C55.0137 239.734 53.4466 241.301 53.4466 243.234C53.4466 245.167 55.0137 246.734 56.9466 246.734C58.8796 246.734 60.4466 245.167 60.4466 243.234Z" fill="#93EA20"/>
<path d="M60.4466 216.581C60.4466 214.648 58.8796 213.081 56.9466 213.081C55.0137 213.081 53.4466 214.648 53.4466 216.581C53.4466 218.514 55.0137 220.081 56.9466 220.081C58.8796 220.081 60.4466 218.514 60.4466 216.581Z" fill="#93EA20"/>
<path d="M60.4467 189.928C60.4467 187.995 58.8796 186.428 56.9467 186.428C55.0137 186.428 53.4467 187.995 53.4467 189.928C53.4467 191.861 55.0137 193.428 56.9467 193.428C58.8796 193.428 60.4467 191.861 60.4467 189.928Z" fill="#93EA20"/>
<path d="M60.4467 163.275C60.4467 161.342 58.8797 159.775 56.9467 159.775C55.0137 159.775 53.4467 161.342 53.4467 163.275C53.4467 165.208 55.0137 166.775 56.9467 166.775C58.8797 166.775 60.4467 165.208 60.4467 163.275Z" fill="#93EA20"/>
<path d="M60.4467 136.622C60.4467 134.689 58.8796 133.122 56.9467 133.122C55.0137 133.122 53.4467 134.689 53.4467 136.622C53.4467 138.555 55.0137 140.122 56.9467 140.122C58.8796 140.122 60.4467 138.555 60.4467 136.622Z" fill="#93EA20"/>
<path d="M60.4467 110.146C60.4467 108.213 58.8796 106.646 56.9467 106.646C55.0137 106.646 53.4467 108.213 53.4467 110.146C53.4467 112.079 55.0137 113.646 56.9467 113.646C58.8796 113.646 60.4467 112.079 60.4467 110.146Z" fill="#93EA20"/>
<path d="M87.2585 483.112C87.2585 481.179 85.6915 479.612 83.7585 479.612C81.8255 479.612 80.2585 481.179 80.2585 483.112C80.2585 485.045 81.8255 486.612 83.7585 486.612C85.6915 486.612 87.2585 485.045 87.2585 483.112Z" fill="#93EA20"/>
<path d="M87.2585 456.46C87.2585 454.527 85.6915 452.96 83.7585 452.96C81.8255 452.96 80.2585 454.527 80.2585 456.46C80.2585 458.393 81.8255 459.96 83.7585 459.96C85.6915 459.96 87.2585 458.393 87.2585 456.46Z" fill="#93EA20"/>
<path d="M87.2585 429.806C87.2585 427.873 85.6915 426.306 83.7585 426.306C81.8255 426.306 80.2585 427.873 80.2585 429.806C80.2585 431.739 81.8255 433.306 83.7585 433.306C85.6915 433.306 87.2585 431.739 87.2585 429.806Z" fill="#93EA20"/>
<path d="M87.2585 403.153C87.2585 401.22 85.6915 399.653 83.7585 399.653C81.8255 399.653 80.2585 401.22 80.2585 403.153C80.2585 405.086 81.8255 406.653 83.7585 406.653C85.6915 406.653 87.2585 405.086 87.2585 403.153Z" fill="#93EA20"/>
<path d="M87.2585 376.5C87.2585 374.567 85.6915 373 83.7585 373C81.8255 373 80.2585 374.567 80.2585 376.5C80.2585 378.433 81.8255 380 83.7585 380C85.6915 380 87.2585 378.433 87.2585 376.5Z" fill="#93EA20"/>
<path d="M87.2585 349.847C87.2585 347.914 85.6915 346.347 83.7585 346.347C81.8255 346.347 80.2585 347.914 80.2585 349.847C80.2585 351.78 81.8255 353.347 83.7585 353.347C85.6915 353.347 87.2585 351.78 87.2585 349.847Z" fill="#93EA20"/>
<path d="M87.2585 323.194C87.2585 321.261 85.6915 319.694 83.7585 319.694C81.8255 319.694 80.2585 321.261 80.2585 323.194C80.2585 325.127 81.8255 326.694 83.7585 326.694C85.6915 326.694 87.2585 325.127 87.2585 323.194Z" fill="#93EA20"/>
<path d="M87.2585 296.541C87.2585 294.608 85.6915 293.041 83.7585 293.041C81.8255 293.041 80.2585 294.608 80.2585 296.541C80.2585 298.474 81.8255 300.041 83.7585 300.041C85.6915 300.041 87.2585 298.474 87.2585 296.541Z" fill="#93EA20"/>
<path d="M87.2585 269.888C87.2585 267.955 85.6915 266.388 83.7585 266.388C81.8255 266.388 80.2585 267.955 80.2585 269.888C80.2585 271.821 81.8255 273.388 83.7585 273.388C85.6915 273.388 87.2585 271.821 87.2585 269.888Z" fill="#93EA20"/>
<path d="M87.2585 243.234C87.2585 241.301 85.6915 239.734 83.7585 239.734C81.8255 239.734 80.2585 241.301 80.2585 243.234C80.2585 245.167 81.8255 246.734 83.7585 246.734C85.6915 246.734 87.2585 245.167 87.2585 243.234Z" fill="#93EA20"/>
<path d="M87.2585 216.581C87.2585 214.648 85.6915 213.081 83.7585 213.081C81.8255 213.081 80.2585 214.648 80.2585 216.581C80.2585 218.514 81.8255 220.081 83.7585 220.081C85.6915 220.081 87.2585 218.514 87.2585 216.581Z" fill="#93EA20"/>
<path d="M87.2585 189.928C87.2585 187.995 85.6915 186.428 83.7585 186.428C81.8255 186.428 80.2585 187.995 80.2585 189.928C80.2585 191.861 81.8255 193.428 83.7585 193.428C85.6915 193.428 87.2585 191.861 87.2585 189.928Z" fill="#93EA20"/>
<path d="M87.2585 163.275C87.2585 161.342 85.6915 159.775 83.7585 159.775C81.8255 159.775 80.2585 161.342 80.2585 163.275C80.2585 165.208 81.8255 166.775 83.7585 166.775C85.6915 166.775 87.2585 165.208 87.2585 163.275Z" fill="#93EA20"/>
<path d="M87.2585 136.622C87.2585 134.689 85.6915 133.122 83.7585 133.122C81.8255 133.122 80.2585 134.689 80.2585 136.622C80.2585 138.555 81.8255 140.122 83.7585 140.122C85.6915 140.122 87.2585 138.555 87.2585 136.622Z" fill="#93EA20"/>
<path d="M87.2585 110.146C87.2585 108.213 85.6915 106.646 83.7585 106.646C81.8255 106.646 80.2585 108.213 80.2585 110.146C80.2585 112.079 81.8255 113.646 83.7585 113.646C85.6915 113.646 87.2585 112.079 87.2585 110.146Z" fill="#93EA20"/>
<path d="M113.893 483.112C113.893 481.179 112.326 479.612 110.393 479.612C108.46 479.612 106.893 481.179 106.893 483.112C106.893 485.045 108.46 486.612 110.393 486.612C112.326 486.612 113.893 485.045 113.893 483.112Z" fill="#93EA20"/>
<path d="M113.893 456.46C113.893 454.527 112.326 452.96 110.393 452.96C108.46 452.96 106.893 454.527 106.893 456.46C106.893 458.393 108.46 459.96 110.393 459.96C112.326 459.96 113.893 458.393 113.893 456.46Z" fill="#93EA20"/>
<path d="M113.893 429.806C113.893 427.873 112.326 426.306 110.393 426.306C108.46 426.306 106.893 427.873 106.893 429.806C106.893 431.739 108.46 433.306 110.393 433.306C112.326 433.306 113.893 431.739 113.893 429.806Z" fill="#93EA20"/>
<path d="M113.893 403.153C113.893 401.22 112.326 399.653 110.393 399.653C108.46 399.653 106.893 401.22 106.893 403.153C106.893 405.086 108.46 406.653 110.393 406.653C112.326 406.653 113.893 405.086 113.893 403.153Z" fill="#93EA20"/>
<path d="M113.893 376.5C113.893 374.567 112.326 373 110.393 373C108.46 373 106.893 374.567 106.893 376.5C106.893 378.433 108.46 380 110.393 380C112.326 380 113.893 378.433 113.893 376.5Z" fill="#93EA20"/>
<path d="M113.893 349.847C113.893 347.914 112.326 346.347 110.393 346.347C108.46 346.347 106.893 347.914 106.893 349.847C106.893 351.78 108.46 353.347 110.393 353.347C112.326 353.347 113.893 351.78 113.893 349.847Z" fill="#93EA20"/>
<path d="M113.893 323.194C113.893 321.261 112.326 319.694 110.393 319.694C108.46 319.694 106.893 321.261 106.893 323.194C106.893 325.127 108.46 326.694 110.393 326.694C112.326 326.694 113.893 325.127 113.893 323.194Z" fill="#93EA20"/>
<path d="M113.893 296.541C113.893 294.608 112.326 293.041 110.393 293.041C108.46 293.041 106.893 294.608 106.893 296.541C106.893 298.474 108.46 300.041 110.393 300.041C112.326 300.041 113.893 298.474 113.893 296.541Z" fill="#93EA20"/>
<path d="M113.893 269.888C113.893 267.955 112.326 266.388 110.393 266.388C108.46 266.388 106.893 267.955 106.893 269.888C106.893 271.821 108.46 273.388 110.393 273.388C112.326 273.388 113.893 271.821 113.893 269.888Z" fill="#93EA20"/>
<path d="M113.893 243.234C113.893 241.301 112.326 239.734 110.393 239.734C108.46 239.734 106.893 241.301 106.893 243.234C106.893 245.167 108.46 246.734 110.393 246.734C112.326 246.734 113.893 245.167 113.893 243.234Z" fill="#93EA20"/>
<path d="M113.893 216.581C113.893 214.648 112.326 213.081 110.393 213.081C108.46 213.081 106.893 214.648 106.893 216.581C106.893 218.514 108.46 220.081 110.393 220.081C112.326 220.081 113.893 218.514 113.893 216.581Z" fill="#93EA20"/>
<path d="M113.893 189.928C113.893 187.995 112.326 186.428 110.393 186.428C108.46 186.428 106.893 187.995 106.893 189.928C106.893 191.861 108.46 193.428 110.393 193.428C112.326 193.428 113.893 191.861 113.893 189.928Z" fill="#93EA20"/>
<path d="M113.893 163.275C113.893 161.342 112.326 159.775 110.393 159.775C108.46 159.775 106.893 161.342 106.893 163.275C106.893 165.208 108.46 166.775 110.393 166.775C112.326 166.775 113.893 165.208 113.893 163.275Z" fill="#93EA20"/>
<path d="M113.893 136.622C113.893 134.689 112.326 133.122 110.393 133.122C108.46 133.122 106.893 134.689 106.893 136.622C106.893 138.555 108.46 140.122 110.393 140.122C112.326 140.122 113.893 138.555 113.893 136.622Z" fill="#93EA20"/>
<path d="M113.893 110.146C113.893 108.213 112.326 106.646 110.393 106.646C108.46 106.646 106.893 108.213 106.893 110.146C106.893 112.079 108.46 113.646 110.393 113.646C112.326 113.646 113.893 112.079 113.893 110.146Z" fill="#93EA20"/>
<path d="M140.706 483.112C140.706 481.179 139.139 479.612 137.206 479.612C135.273 479.612 133.706 481.179 133.706 483.112C133.706 485.045 135.273 486.612 137.206 486.612C139.139 486.612 140.706 485.045 140.706 483.112Z" fill="#93EA20"/>
<path d="M140.706 456.46C140.706 454.527 139.139 452.96 137.206 452.96C135.273 452.96 133.706 454.527 133.706 456.46C133.706 458.393 135.273 459.96 137.206 459.96C139.139 459.96 140.706 458.393 140.706 456.46Z" fill="#93EA20"/>
<path d="M140.706 429.806C140.706 427.873 139.139 426.306 137.206 426.306C135.273 426.306 133.706 427.873 133.706 429.806C133.706 431.739 135.273 433.306 137.206 433.306C139.139 433.306 140.706 431.739 140.706 429.806Z" fill="#93EA20"/>
<path d="M140.706 403.153C140.706 401.22 139.139 399.653 137.206 399.653C135.273 399.653 133.706 401.22 133.706 403.153C133.706 405.086 135.273 406.653 137.206 406.653C139.139 406.653 140.706 405.086 140.706 403.153Z" fill="#93EA20"/>
<path d="M140.706 376.5C140.706 374.567 139.139 373 137.206 373C135.273 373 133.706 374.567 133.706 376.5C133.706 378.433 135.273 380 137.206 380C139.139 380 140.706 378.433 140.706 376.5Z" fill="#93EA20"/>
<path d="M140.706 349.847C140.706 347.914 139.139 346.347 137.206 346.347C135.273 346.347 133.706 347.914 133.706 349.847C133.706 351.78 135.273 353.347 137.206 353.347C139.139 353.347 140.706 351.78 140.706 349.847Z" fill="#93EA20"/>
<path d="M140.706 323.194C140.706 321.261 139.139 319.694 137.206 319.694C135.273 319.694 133.706 321.261 133.706 323.194C133.706 325.127 135.273 326.694 137.206 326.694C139.139 326.694 140.706 325.127 140.706 323.194Z" fill="#93EA20"/>
<path d="M140.706 296.541C140.706 294.608 139.139 293.041 137.206 293.041C135.273 293.041 133.706 294.608 133.706 296.541C133.706 298.474 135.273 300.041 137.206 300.041C139.139 300.041 140.706 298.474 140.706 296.541Z" fill="#93EA20"/>
<path d="M140.706 269.888C140.706 267.955 139.139 266.388 137.206 266.388C135.273 266.388 133.706 267.955 133.706 269.888C133.706 271.821 135.273 273.388 137.206 273.388C139.139 273.388 140.706 271.821 140.706 269.888Z" fill="#93EA20"/>
<path d="M140.706 243.234C140.706 241.301 139.139 239.734 137.206 239.734C135.273 239.734 133.706 241.301 133.706 243.234C133.706 245.167 135.273 246.734 137.206 246.734C139.139 246.734 140.706 245.167 140.706 243.234Z" fill="#93EA20"/>
<path d="M140.706 216.581C140.706 214.648 139.139 213.081 137.206 213.081C135.273 213.081 133.706 214.648 133.706 216.581C133.706 218.514 135.273 220.081 137.206 220.081C139.139 220.081 140.706 218.514 140.706 216.581Z" fill="#93EA20"/>
<path d="M140.706 189.928C140.706 187.995 139.139 186.428 137.206 186.428C135.273 186.428 133.706 187.995 133.706 189.928C133.706 191.861 135.273 193.428 137.206 193.428C139.139 193.428 140.706 191.861 140.706 189.928Z" fill="#93EA20"/>
<path d="M140.706 163.275C140.706 161.342 139.139 159.775 137.206 159.775C135.273 159.775 133.706 161.342 133.706 163.275C133.706 165.208 135.273 166.775 137.206 166.775C139.139 166.775 140.706 165.208 140.706 163.275Z" fill="#93EA20"/>
<path d="M140.706 136.622C140.706 134.689 139.139 133.122 137.206 133.122C135.273 133.122 133.706 134.689 133.706 136.622C133.706 138.555 135.273 140.122 137.206 140.122C139.139 140.122 140.706 138.555 140.706 136.622Z" fill="#93EA20"/>
<path d="M140.706 110.146C140.706 108.213 139.139 106.646 137.206 106.646C135.273 106.646 133.706 108.213 133.706 110.146C133.706 112.079 135.273 113.646 137.206 113.646C139.139 113.646 140.706 112.079 140.706 110.146Z" fill="#93EA20"/>
<path d="M167.34 483.112C167.34 481.179 165.773 479.612 163.84 479.612C161.907 479.612 160.34 481.179 160.34 483.112C160.34 485.045 161.907 486.612 163.84 486.612C165.773 486.612 167.34 485.045 167.34 483.112Z" fill="#93EA20"/>
<path d="M167.34 456.459C167.34 454.526 165.773 452.959 163.84 452.959C161.907 452.959 160.34 454.526 160.34 456.459C160.34 458.392 161.907 459.959 163.84 459.959C165.773 459.959 167.34 458.392 167.34 456.459Z" fill="#93EA20"/>
<path d="M167.34 429.806C167.34 427.873 165.773 426.306 163.84 426.306C161.907 426.306 160.34 427.873 160.34 429.806C160.34 431.739 161.907 433.306 163.84 433.306C165.773 433.306 167.34 431.739 167.34 429.806Z" fill="#93EA20"/>
<path d="M167.34 403.153C167.34 401.22 165.773 399.653 163.84 399.653C161.907 399.653 160.34 401.22 160.34 403.153C160.34 405.086 161.907 406.653 163.84 406.653C165.773 406.653 167.34 405.086 167.34 403.153Z" fill="#93EA20"/>
<path d="M167.34 376.5C167.34 374.567 165.773 373 163.84 373C161.907 373 160.34 374.567 160.34 376.5C160.34 378.433 161.907 380 163.84 380C165.773 380 167.34 378.433 167.34 376.5Z" fill="#93EA20"/>
<path d="M167.34 349.847C167.34 347.914 165.773 346.347 163.84 346.347C161.907 346.347 160.34 347.914 160.34 349.847C160.34 351.78 161.907 353.347 163.84 353.347C165.773 353.347 167.34 351.78 167.34 349.847Z" fill="#93EA20"/>
<path d="M167.34 323.194C167.34 321.261 165.773 319.694 163.84 319.694C161.907 319.694 160.34 321.261 160.34 323.194C160.34 325.127 161.907 326.694 163.84 326.694C165.773 326.694 167.34 325.127 167.34 323.194Z" fill="#93EA20"/>
<path d="M167.34 296.541C167.34 294.608 165.773 293.041 163.84 293.041C161.907 293.041 160.34 294.608 160.34 296.541C160.34 298.474 161.907 300.041 163.84 300.041C165.773 300.041 167.34 298.474 167.34 296.541Z" fill="#93EA20"/>
<path d="M167.34 269.888C167.34 267.955 165.773 266.388 163.84 266.388C161.907 266.388 160.34 267.955 160.34 269.888C160.34 271.821 161.907 273.388 163.84 273.388C165.773 273.388 167.34 271.821 167.34 269.888Z" fill="#93EA20"/>
<path d="M167.34 243.234C167.34 241.301 165.773 239.734 163.84 239.734C161.907 239.734 160.34 241.301 160.34 243.234C160.34 245.167 161.907 246.734 163.84 246.734C165.773 246.734 167.34 245.167 167.34 243.234Z" fill="#93EA20"/>
<path d="M167.34 216.581C167.34 214.648 165.773 213.081 163.84 213.081C161.907 213.081 160.34 214.648 160.34 216.581C160.34 218.514 161.907 220.081 163.84 220.081C165.773 220.081 167.34 218.514 167.34 216.581Z" fill="#93EA20"/>
<path d="M167.34 189.928C167.34 187.995 165.773 186.428 163.84 186.428C161.907 186.428 160.34 187.995 160.34 189.928C160.34 191.861 161.907 193.428 163.84 193.428C165.773 193.428 167.34 191.861 167.34 189.928Z" fill="#93EA20"/>
<path d="M167.34 163.275C167.34 161.342 165.773 159.775 163.84 159.775C161.907 159.775 160.34 161.342 160.34 163.275C160.34 165.208 161.907 166.775 163.84 166.775C165.773 166.775 167.34 165.208 167.34 163.275Z" fill="#93EA20"/>
<path d="M167.34 136.622C167.34 134.689 165.773 133.122 163.84 133.122C161.907 133.122 160.34 134.689 160.34 136.622C160.34 138.555 161.907 140.122 163.84 140.122C165.773 140.122 167.34 138.555 167.34 136.622Z" fill="#93EA20"/>
<path d="M167.34 110.146C167.34 108.213 165.773 106.646 163.84 106.646C161.907 106.646 160.34 108.213 160.34 110.146C160.34 112.079 161.907 113.646 163.84 113.646C165.773 113.646 167.34 112.079 167.34 110.146Z" fill="#93EA20"/>
<path d="M194.152 483.112C194.152 481.179 192.585 479.612 190.652 479.612C188.719 479.612 187.152 481.179 187.152 483.112C187.152 485.045 188.719 486.612 190.652 486.612C192.585 486.612 194.152 485.045 194.152 483.112Z" fill="#93EA20"/>
<path d="M194.152 456.459C194.152 454.526 192.585 452.959 190.652 452.959C188.719 452.959 187.152 454.526 187.152 456.459C187.152 458.392 188.719 459.959 190.652 459.959C192.585 459.959 194.152 458.392 194.152 456.459Z" fill="#93EA20"/>
<path d="M194.152 429.806C194.152 427.873 192.585 426.306 190.652 426.306C188.719 426.306 187.152 427.873 187.152 429.806C187.152 431.739 188.719 433.306 190.652 433.306C192.585 433.306 194.152 431.739 194.152 429.806Z" fill="#93EA20"/>
<path d="M194.152 403.153C194.152 401.22 192.585 399.653 190.652 399.653C188.719 399.653 187.152 401.22 187.152 403.153C187.152 405.086 188.719 406.653 190.652 406.653C192.585 406.653 194.152 405.086 194.152 403.153Z" fill="#93EA20"/>
<path d="M194.152 376.5C194.152 374.567 192.585 373 190.652 373C188.719 373 187.152 374.567 187.152 376.5C187.152 378.433 188.719 380 190.652 380C192.585 380 194.152 378.433 194.152 376.5Z" fill="#93EA20"/>
<path d="M194.152 349.847C194.152 347.914 192.585 346.347 190.652 346.347C188.719 346.347 187.152 347.914 187.152 349.847C187.152 351.78 188.719 353.347 190.652 353.347C192.585 353.347 194.152 351.78 194.152 349.847Z" fill="#93EA20"/>
<path d="M194.152 323.194C194.152 321.261 192.585 319.694 190.652 319.694C188.719 319.694 187.152 321.261 187.152 323.194C187.152 325.127 188.719 326.694 190.652 326.694C192.585 326.694 194.152 325.127 194.152 323.194Z" fill="#93EA20"/>
<path d="M194.152 296.541C194.152 294.608 192.585 293.041 190.652 293.041C188.719 293.041 187.152 294.608 187.152 296.541C187.152 298.474 188.719 300.041 190.652 300.041C192.585 300.041 194.152 298.474 194.152 296.541Z" fill="#93EA20"/>
<path d="M194.152 269.888C194.152 267.955 192.585 266.388 190.652 266.388C188.719 266.388 187.152 267.955 187.152 269.888C187.152 271.821 188.719 273.388 190.652 273.388C192.585 273.388 194.152 271.821 194.152 269.888Z" fill="#93EA20"/>
<path d="M194.152 243.234C194.152 241.301 192.585 239.734 190.652 239.734C188.719 239.734 187.152 241.301 187.152 243.234C187.152 245.167 188.719 246.734 190.652 246.734C192.585 246.734 194.152 245.167 194.152 243.234Z" fill="#93EA20"/>
<path d="M194.152 216.581C194.152 214.648 192.585 213.081 190.652 213.081C188.719 213.081 187.152 214.648 187.152 216.581C187.152 218.514 188.719 220.081 190.652 220.081C192.585 220.081 194.152 218.514 194.152 216.581Z" fill="#93EA20"/>
<path d="M194.152 189.928C194.152 187.995 192.585 186.428 190.652 186.428C188.719 186.428 187.152 187.995 187.152 189.928C187.152 191.861 188.719 193.428 190.652 193.428C192.585 193.428 194.152 191.861 194.152 189.928Z" fill="#93EA20"/>
<path d="M194.152 163.275C194.152 161.342 192.585 159.775 190.652 159.775C188.719 159.775 187.152 161.342 187.152 163.275C187.152 165.208 188.719 166.775 190.652 166.775C192.585 166.775 194.152 165.208 194.152 163.275Z" fill="#93EA20"/>
<path d="M194.152 136.622C194.152 134.689 192.585 133.122 190.652 133.122C188.719 133.122 187.152 134.689 187.152 136.622C187.152 138.555 188.719 140.122 190.652 140.122C192.585 140.122 194.152 138.555 194.152 136.622Z" fill="#93EA20"/>
<path d="M194.152 110.146C194.152 108.213 192.585 106.646 190.652 106.646C188.719 106.646 187.152 108.213 187.152 110.146C187.152 112.079 188.719 113.646 190.652 113.646C192.585 113.646 194.152 112.079 194.152 110.146Z" fill="#93EA20"/>
<path d="M220.787 483.112C220.787 481.179 219.22 479.612 217.287 479.612C215.354 479.612 213.787 481.179 213.787 483.112C213.787 485.045 215.354 486.612 217.287 486.612C219.22 486.612 220.787 485.045 220.787 483.112Z" fill="#93EA20"/>
<path d="M220.787 456.459C220.787 454.526 219.22 452.959 217.287 452.959C215.354 452.959 213.787 454.526 213.787 456.459C213.787 458.392 215.354 459.959 217.287 459.959C219.22 459.959 220.787 458.392 220.787 456.459Z" fill="#93EA20"/>
<path d="M220.787 429.806C220.787 427.873 219.22 426.306 217.287 426.306C215.354 426.306 213.787 427.873 213.787 429.806C213.787 431.739 215.354 433.306 217.287 433.306C219.22 433.306 220.787 431.739 220.787 429.806Z" fill="#93EA20"/>
<path d="M220.787 403.153C220.787 401.22 219.22 399.653 217.287 399.653C215.354 399.653 213.787 401.22 213.787 403.153C213.787 405.086 215.354 406.653 217.287 406.653C219.22 406.653 220.787 405.086 220.787 403.153Z" fill="#93EA20"/>
<path d="M220.787 376.5C220.787 374.567 219.22 373 217.287 373C215.354 373 213.787 374.567 213.787 376.5C213.787 378.433 215.354 380 217.287 380C219.22 380 220.787 378.433 220.787 376.5Z" fill="#93EA20"/>
<path d="M220.787 349.847C220.787 347.914 219.22 346.347 217.287 346.347C215.354 346.347 213.787 347.914 213.787 349.847C213.787 351.78 215.354 353.347 217.287 353.347C219.22 353.347 220.787 351.78 220.787 349.847Z" fill="#93EA20"/>
<path d="M220.787 323.194C220.787 321.261 219.22 319.694 217.287 319.694C215.354 319.694 213.787 321.261 213.787 323.194C213.787 325.127 215.354 326.694 217.287 326.694C219.22 326.694 220.787 325.127 220.787 323.194Z" fill="#93EA20"/>
<path d="M220.787 296.541C220.787 294.608 219.22 293.041 217.287 293.041C215.354 293.041 213.787 294.608 213.787 296.541C213.787 298.474 215.354 300.041 217.287 300.041C219.22 300.041 220.787 298.474 220.787 296.541Z" fill="#93EA20"/>
<path d="M220.787 269.888C220.787 267.955 219.22 266.388 217.287 266.388C215.354 266.388 213.787 267.955 213.787 269.888C213.787 271.821 215.354 273.388 217.287 273.388C219.22 273.388 220.787 271.821 220.787 269.888Z" fill="#93EA20"/>
<path d="M220.787 243.234C220.787 241.301 219.22 239.734 217.287 239.734C215.354 239.734 213.787 241.301 213.787 243.234C213.787 245.167 215.354 246.734 217.287 246.734C219.22 246.734 220.787 245.167 220.787 243.234Z" fill="#93EA20"/>
<path d="M220.787 216.581C220.787 214.648 219.22 213.081 217.287 213.081C215.354 213.081 213.787 214.648 213.787 216.581C213.787 218.514 215.354 220.081 217.287 220.081C219.22 220.081 220.787 218.514 220.787 216.581Z" fill="#93EA20"/>
<path d="M220.787 189.928C220.787 187.995 219.22 186.428 217.287 186.428C215.354 186.428 213.787 187.995 213.787 189.928C213.787 191.861 215.354 193.428 217.287 193.428C219.22 193.428 220.787 191.861 220.787 189.928Z" fill="#93EA20"/>
<path d="M220.787 163.275C220.787 161.342 219.22 159.775 217.287 159.775C215.354 159.775 213.787 161.342 213.787 163.275C213.787 165.208 215.354 166.775 217.287 166.775C219.22 166.775 220.787 165.208 220.787 163.275Z" fill="#93EA20"/>
<path d="M220.787 136.622C220.787 134.689 219.22 133.122 217.287 133.122C215.354 133.122 213.787 134.689 213.787 136.622C213.787 138.555 215.354 140.122 217.287 140.122C219.22 140.122 220.787 138.555 220.787 136.622Z" fill="#93EA20"/>
<path d="M220.787 110.146C220.787 108.213 219.22 106.646 217.287 106.646C215.354 106.646 213.787 108.213 213.787 110.146C213.787 112.079 215.354 113.646 217.287 113.646C219.22 113.646 220.787 112.079 220.787 110.146Z" fill="#93EA20"/>
<path d="M247.599 483.112C247.599 481.179 246.032 479.612 244.099 479.612C242.166 479.612 240.599 481.179 240.599 483.112C240.599 485.045 242.166 486.612 244.099 486.612C246.032 486.612 247.599 485.045 247.599 483.112Z" fill="#93EA20"/>
<path d="M247.599 456.46C247.599 454.527 246.032 452.96 244.099 452.96C242.166 452.96 240.599 454.527 240.599 456.46C240.599 458.393 242.166 459.96 244.099 459.96C246.032 459.96 247.599 458.393 247.599 456.46Z" fill="#93EA20"/>
<path d="M247.599 429.806C247.599 427.873 246.032 426.306 244.099 426.306C242.166 426.306 240.599 427.873 240.599 429.806C240.599 431.739 242.166 433.306 244.099 433.306C246.032 433.306 247.599 431.739 247.599 429.806Z" fill="#93EA20"/>
<path d="M247.599 403.153C247.599 401.22 246.032 399.653 244.099 399.653C242.166 399.653 240.599 401.22 240.599 403.153C240.599 405.086 242.166 406.653 244.099 406.653C246.032 406.653 247.599 405.086 247.599 403.153Z" fill="#93EA20"/>
<path d="M247.599 376.5C247.599 374.567 246.032 373 244.099 373C242.166 373 240.599 374.567 240.599 376.5C240.599 378.433 242.166 380 244.099 380C246.032 380 247.599 378.433 247.599 376.5Z" fill="#93EA20"/>
<path d="M247.599 349.847C247.599 347.914 246.032 346.347 244.099 346.347C242.166 346.347 240.599 347.914 240.599 349.847C240.599 351.78 242.166 353.347 244.099 353.347C246.032 353.347 247.599 351.78 247.599 349.847Z" fill="#93EA20"/>
<path d="M247.599 323.194C247.599 321.261 246.032 319.694 244.099 319.694C242.166 319.694 240.599 321.261 240.599 323.194C240.599 325.127 242.166 326.694 244.099 326.694C246.032 326.694 247.599 325.127 247.599 323.194Z" fill="#93EA20"/>
<path d="M247.599 296.541C247.599 294.608 246.032 293.041 244.099 293.041C242.166 293.041 240.599 294.608 240.599 296.541C240.599 298.474 242.166 300.041 244.099 300.041C246.032 300.041 247.599 298.474 247.599 296.541Z" fill="#93EA20"/>
<path d="M247.599 269.888C247.599 267.955 246.032 266.388 244.099 266.388C242.166 266.388 240.599 267.955 240.599 269.888C240.599 271.821 242.166 273.388 244.099 273.388C246.032 273.388 247.599 271.821 247.599 269.888Z" fill="#93EA20"/>
<path d="M247.599 243.234C247.599 241.301 246.032 239.734 244.099 239.734C242.166 239.734 240.599 241.301 240.599 243.234C240.599 245.167 242.166 246.734 244.099 246.734C246.032 246.734 247.599 245.167 247.599 243.234Z" fill="#93EA20"/>
<path d="M247.599 216.581C247.599 214.648 246.032 213.081 244.099 213.081C242.166 213.081 240.599 214.648 240.599 216.581C240.599 218.514 242.166 220.081 244.099 220.081C246.032 220.081 247.599 218.514 247.599 216.581Z" fill="#93EA20"/>
<path d="M247.599 189.928C247.599 187.995 246.032 186.428 244.099 186.428C242.166 186.428 240.599 187.995 240.599 189.928C240.599 191.861 242.166 193.428 244.099 193.428C246.032 193.428 247.599 191.861 247.599 189.928Z" fill="#93EA20"/>
<path d="M247.599 163.275C247.599 161.342 246.032 159.775 244.099 159.775C242.166 159.775 240.599 161.342 240.599 163.275C240.599 165.208 242.166 166.775 244.099 166.775C246.032 166.775 247.599 165.208 247.599 163.275Z" fill="#93EA20"/>
<path d="M247.599 136.622C247.599 134.689 246.032 133.122 244.099 133.122C242.166 133.122 240.599 134.689 240.599 136.622C240.599 138.555 242.166 140.122 244.099 140.122C246.032 140.122 247.599 138.555 247.599 136.622Z" fill="#93EA20"/>
<path d="M247.599 110.146C247.599 108.213 246.032 106.646 244.099 106.646C242.166 106.646 240.599 108.213 240.599 110.146C240.599 112.079 242.166 113.646 244.099 113.646C246.032 113.646 247.599 112.079 247.599 110.146Z" fill="#93EA20"/>
<path d="M274.411 483.112C274.411 481.179 272.844 479.612 270.911 479.612C268.978 479.612 267.411 481.179 267.411 483.112C267.411 485.045 268.978 486.612 270.911 486.612C272.844 486.612 274.411 485.045 274.411 483.112Z" fill="#93EA20"/>
<path d="M274.411 456.46C274.411 454.527 272.844 452.96 270.911 452.96C268.978 452.96 267.411 454.527 267.411 456.46C267.411 458.393 268.978 459.96 270.911 459.96C272.844 459.96 274.411 458.393 274.411 456.46Z" fill="#93EA20"/>
<path d="M274.411 429.806C274.411 427.873 272.844 426.306 270.911 426.306C268.978 426.306 267.411 427.873 267.411 429.806C267.411 431.739 268.978 433.306 270.911 433.306C272.844 433.306 274.411 431.739 274.411 429.806Z" fill="#93EA20"/>
<path d="M274.411 403.153C274.411 401.22 272.844 399.653 270.911 399.653C268.978 399.653 267.411 401.22 267.411 403.153C267.411 405.086 268.978 406.653 270.911 406.653C272.844 406.653 274.411 405.086 274.411 403.153Z" fill="#93EA20"/>
<path d="M274.411 376.5C274.411 374.567 272.844 373 270.911 373C268.978 373 267.411 374.567 267.411 376.5C267.411 378.433 268.978 380 270.911 380C272.844 380 274.411 378.433 274.411 376.5Z" fill="#93EA20"/>
<path d="M274.411 349.847C274.411 347.914 272.844 346.347 270.911 346.347C268.978 346.347 267.411 347.914 267.411 349.847C267.411 351.78 268.978 353.347 270.911 353.347C272.844 353.347 274.411 351.78 274.411 349.847Z" fill="#93EA20"/>
<path d="M274.411 323.194C274.411 321.261 272.844 319.694 270.911 319.694C268.978 319.694 267.411 321.261 267.411 323.194C267.411 325.127 268.978 326.694 270.911 326.694C272.844 326.694 274.411 325.127 274.411 323.194Z" fill="#93EA20"/>
<path d="M274.411 296.541C274.411 294.608 272.844 293.041 270.911 293.041C268.978 293.041 267.411 294.608 267.411 296.541C267.411 298.474 268.978 300.041 270.911 300.041C272.844 300.041 274.411 298.474 274.411 296.541Z" fill="#93EA20"/>
<path d="M274.411 269.888C274.411 267.955 272.844 266.388 270.911 266.388C268.978 266.388 267.411 267.955 267.411 269.888C267.411 271.821 268.978 273.388 270.911 273.388C272.844 273.388 274.411 271.821 274.411 269.888Z" fill="#93EA20"/>
<path d="M274.411 243.234C274.411 241.301 272.844 239.734 270.911 239.734C268.978 239.734 267.411 241.301 267.411 243.234C267.411 245.167 268.978 246.734 270.911 246.734C272.844 246.734 274.411 245.167 274.411 243.234Z" fill="#93EA20"/>
<path d="M274.411 216.581C274.411 214.648 272.844 213.081 270.911 213.081C268.978 213.081 267.411 214.648 267.411 216.581C267.411 218.514 268.978 220.081 270.911 220.081C272.844 220.081 274.411 218.514 274.411 216.581Z" fill="#93EA20"/>
<path d="M274.411 189.928C274.411 187.995 272.844 186.428 270.911 186.428C268.978 186.428 267.411 187.995 267.411 189.928C267.411 191.861 268.978 193.428 270.911 193.428C272.844 193.428 274.411 191.861 274.411 189.928Z" fill="#93EA20"/>
<path d="M274.411 163.275C274.411 161.342 272.844 159.775 270.911 159.775C268.978 159.775 267.411 161.342 267.411 163.275C267.411 165.208 268.978 166.775 270.911 166.775C272.844 166.775 274.411 165.208 274.411 163.275Z" fill="#93EA20"/>
<path d="M274.411 136.622C274.411 134.689 272.844 133.122 270.911 133.122C268.978 133.122 267.411 134.689 267.411 136.622C267.411 138.555 268.978 140.122 270.911 140.122C272.844 140.122 274.411 138.555 274.411 136.622Z" fill="#93EA20"/>
<path d="M274.411 110.146C274.411 108.213 272.844 106.646 270.911 106.646C268.978 106.646 267.411 108.213 267.411 110.146C267.411 112.079 268.978 113.646 270.911 113.646C272.844 113.646 274.411 112.079 274.411 110.146Z" fill="#93EA20"/>
<path d="M301.046 483.112C301.046 481.179 299.479 479.612 297.546 479.612C295.613 479.612 294.046 481.179 294.046 483.112C294.046 485.045 295.613 486.612 297.546 486.612C299.479 486.612 301.046 485.045 301.046 483.112Z" fill="#93EA20"/>
<path d="M301.046 456.46C301.046 454.527 299.479 452.96 297.546 452.96C295.613 452.96 294.046 454.527 294.046 456.46C294.046 458.393 295.613 459.96 297.546 459.96C299.479 459.96 301.046 458.393 301.046 456.46Z" fill="#93EA20"/>
<path d="M301.046 429.806C301.046 427.873 299.479 426.306 297.546 426.306C295.613 426.306 294.046 427.873 294.046 429.806C294.046 431.739 295.613 433.306 297.546 433.306C299.479 433.306 301.046 431.739 301.046 429.806Z" fill="#93EA20"/>
<path d="M301.046 403.153C301.046 401.22 299.479 399.653 297.546 399.653C295.613 399.653 294.046 401.22 294.046 403.153C294.046 405.086 295.613 406.653 297.546 406.653C299.479 406.653 301.046 405.086 301.046 403.153Z" fill="#93EA20"/>
<path d="M301.046 376.5C301.046 374.567 299.479 373 297.546 373C295.613 373 294.046 374.567 294.046 376.5C294.046 378.433 295.613 380 297.546 380C299.479 380 301.046 378.433 301.046 376.5Z" fill="#93EA20"/>
<path d="M301.046 349.847C301.046 347.914 299.479 346.347 297.546 346.347C295.613 346.347 294.046 347.914 294.046 349.847C294.046 351.78 295.613 353.347 297.546 353.347C299.479 353.347 301.046 351.78 301.046 349.847Z" fill="#93EA20"/>
<path d="M301.046 323.194C301.046 321.261 299.479 319.694 297.546 319.694C295.613 319.694 294.046 321.261 294.046 323.194C294.046 325.127 295.613 326.694 297.546 326.694C299.479 326.694 301.046 325.127 301.046 323.194Z" fill="#93EA20"/>
<path d="M301.046 296.541C301.046 294.608 299.479 293.041 297.546 293.041C295.613 293.041 294.046 294.608 294.046 296.541C294.046 298.474 295.613 300.041 297.546 300.041C299.479 300.041 301.046 298.474 301.046 296.541Z" fill="#93EA20"/>
<path d="M301.046 269.888C301.046 267.955 299.479 266.388 297.546 266.388C295.613 266.388 294.046 267.955 294.046 269.888C294.046 271.821 295.613 273.388 297.546 273.388C299.479 273.388 301.046 271.821 301.046 269.888Z" fill="#93EA20"/>
<path d="M301.046 243.234C301.046 241.301 299.479 239.734 297.546 239.734C295.613 239.734 294.046 241.301 294.046 243.234C294.046 245.167 295.613 246.734 297.546 246.734C299.479 246.734 301.046 245.167 301.046 243.234Z" fill="#93EA20"/>
<path d="M301.046 216.581C301.046 214.648 299.479 213.081 297.546 213.081C295.613 213.081 294.046 214.648 294.046 216.581C294.046 218.514 295.613 220.081 297.546 220.081C299.479 220.081 301.046 218.514 301.046 216.581Z" fill="#93EA20"/>
<path d="M301.046 189.928C301.046 187.995 299.479 186.428 297.546 186.428C295.613 186.428 294.046 187.995 294.046 189.928C294.046 191.861 295.613 193.428 297.546 193.428C299.479 193.428 301.046 191.861 301.046 189.928Z" fill="#93EA20"/>
<path d="M301.046 163.275C301.046 161.342 299.479 159.775 297.546 159.775C295.613 159.775 294.046 161.342 294.046 163.275C294.046 165.208 295.613 166.775 297.546 166.775C299.479 166.775 301.046 165.208 301.046 163.275Z" fill="#93EA20"/>
<path d="M301.046 136.622C301.046 134.689 299.479 133.122 297.546 133.122C295.613 133.122 294.046 134.689 294.046 136.622C294.046 138.555 295.613 140.122 297.546 140.122C299.479 140.122 301.046 138.555 301.046 136.622Z" fill="#93EA20"/>
<path d="M301.046 110.146C301.046 108.213 299.479 106.646 297.546 106.646C295.613 106.646 294.046 108.213 294.046 110.146C294.046 112.079 295.613 113.646 297.546 113.646C299.479 113.646 301.046 112.079 301.046 110.146Z" fill="#93EA20"/>
<path d="M327.858 483.112C327.858 481.179 326.291 479.612 324.358 479.612C322.425 479.612 320.858 481.179 320.858 483.112C320.858 485.045 322.425 486.612 324.358 486.612C326.291 486.612 327.858 485.045 327.858 483.112Z" fill="#93EA20"/>
<path d="M327.858 456.46C327.858 454.527 326.291 452.96 324.358 452.96C322.425 452.96 320.858 454.527 320.858 456.46C320.858 458.393 322.425 459.96 324.358 459.96C326.291 459.96 327.858 458.393 327.858 456.46Z" fill="#93EA20"/>
<path d="M327.858 429.806C327.858 427.873 326.291 426.306 324.358 426.306C322.425 426.306 320.858 427.873 320.858 429.806C320.858 431.739 322.425 433.306 324.358 433.306C326.291 433.306 327.858 431.739 327.858 429.806Z" fill="#93EA20"/>
<path d="M327.858 403.153C327.858 401.22 326.291 399.653 324.358 399.653C322.425 399.653 320.858 401.22 320.858 403.153C320.858 405.086 322.425 406.653 324.358 406.653C326.291 406.653 327.858 405.086 327.858 403.153Z" fill="#93EA20"/>
<path d="M327.858 376.5C327.858 374.567 326.291 373 324.358 373C322.425 373 320.858 374.567 320.858 376.5C320.858 378.433 322.425 380 324.358 380C326.291 380 327.858 378.433 327.858 376.5Z" fill="#93EA20"/>
<path d="M327.858 349.847C327.858 347.914 326.291 346.347 324.358 346.347C322.425 346.347 320.858 347.914 320.858 349.847C320.858 351.78 322.425 353.347 324.358 353.347C326.291 353.347 327.858 351.78 327.858 349.847Z" fill="#93EA20"/>
<path d="M327.858 323.194C327.858 321.261 326.291 319.694 324.358 319.694C322.425 319.694 320.858 321.261 320.858 323.194C320.858 325.127 322.425 326.694 324.358 326.694C326.291 326.694 327.858 325.127 327.858 323.194Z" fill="#93EA20"/>
<path d="M327.858 296.541C327.858 294.608 326.291 293.041 324.358 293.041C322.425 293.041 320.858 294.608 320.858 296.541C320.858 298.474 322.425 300.041 324.358 300.041C326.291 300.041 327.858 298.474 327.858 296.541Z" fill="#93EA20"/>
<path d="M327.858 269.888C327.858 267.955 326.291 266.388 324.358 266.388C322.425 266.388 320.858 267.955 320.858 269.888C320.858 271.821 322.425 273.388 324.358 273.388C326.291 273.388 327.858 271.821 327.858 269.888Z" fill="#93EA20"/>
<path d="M327.858 243.234C327.858 241.301 326.291 239.734 324.358 239.734C322.425 239.734 320.858 241.301 320.858 243.234C320.858 245.167 322.425 246.734 324.358 246.734C326.291 246.734 327.858 245.167 327.858 243.234Z" fill="#93EA20"/>
<path d="M327.858 216.581C327.858 214.648 326.291 213.081 324.358 213.081C322.425 213.081 320.858 214.648 320.858 216.581C320.858 218.514 322.425 220.081 324.358 220.081C326.291 220.081 327.858 218.514 327.858 216.581Z" fill="#93EA20"/>
<path d="M327.858 189.928C327.858 187.995 326.291 186.428 324.358 186.428C322.425 186.428 320.858 187.995 320.858 189.928C320.858 191.861 322.425 193.428 324.358 193.428C326.291 193.428 327.858 191.861 327.858 189.928Z" fill="#93EA20"/>
<path d="M327.858 163.275C327.858 161.342 326.291 159.775 324.358 159.775C322.425 159.775 320.858 161.342 320.858 163.275C320.858 165.208 322.425 166.775 324.358 166.775C326.291 166.775 327.858 165.208 327.858 163.275Z" fill="#93EA20"/>
<path d="M327.858 136.622C327.858 134.689 326.291 133.122 324.358 133.122C322.425 133.122 320.858 134.689 320.858 136.622C320.858 138.555 322.425 140.122 324.358 140.122C326.291 140.122 327.858 138.555 327.858 136.622Z" fill="#93EA20"/>
<path d="M327.858 110.146C327.858 108.213 326.291 106.646 324.358 106.646C322.425 106.646 320.858 108.213 320.858 110.146C320.858 112.079 322.425 113.646 324.358 113.646C326.291 113.646 327.858 112.079 327.858 110.146Z" fill="#93EA20"/>
<path d="M354.492 483.112C354.492 481.179 352.925 479.612 350.992 479.612C349.059 479.612 347.492 481.179 347.492 483.112C347.492 485.045 349.059 486.612 350.992 486.612C352.925 486.612 354.492 485.045 354.492 483.112Z" fill="#93EA20"/>
<path d="M354.492 456.46C354.492 454.527 352.925 452.96 350.992 452.96C349.059 452.96 347.492 454.527 347.492 456.46C347.492 458.393 349.059 459.96 350.992 459.96C352.925 459.96 354.492 458.393 354.492 456.46Z" fill="#93EA20"/>
<path d="M354.492 429.806C354.492 427.873 352.925 426.306 350.992 426.306C349.059 426.306 347.492 427.873 347.492 429.806C347.492 431.739 349.059 433.306 350.992 433.306C352.925 433.306 354.492 431.739 354.492 429.806Z" fill="#93EA20"/>
<path d="M354.492 403.153C354.492 401.22 352.925 399.653 350.992 399.653C349.059 399.653 347.492 401.22 347.492 403.153C347.492 405.086 349.059 406.653 350.992 406.653C352.925 406.653 354.492 405.086 354.492 403.153Z" fill="#93EA20"/>
<path d="M354.492 376.5C354.492 374.567 352.925 373 350.992 373C349.059 373 347.492 374.567 347.492 376.5C347.492 378.433 349.059 380 350.992 380C352.925 380 354.492 378.433 354.492 376.5Z" fill="#93EA20"/>
<path d="M354.492 349.847C354.492 347.914 352.925 346.347 350.992 346.347C349.059 346.347 347.492 347.914 347.492 349.847C347.492 351.78 349.059 353.347 350.992 353.347C352.925 353.347 354.492 351.78 354.492 349.847Z" fill="#93EA20"/>
<path d="M354.492 323.194C354.492 321.261 352.925 319.694 350.992 319.694C349.059 319.694 347.492 321.261 347.492 323.194C347.492 325.127 349.059 326.694 350.992 326.694C352.925 326.694 354.492 325.127 354.492 323.194Z" fill="#93EA20"/>
<path d="M354.492 296.541C354.492 294.608 352.925 293.041 350.992 293.041C349.059 293.041 347.492 294.608 347.492 296.541C347.492 298.474 349.059 300.041 350.992 300.041C352.925 300.041 354.492 298.474 354.492 296.541Z" fill="#93EA20"/>
<path d="M354.492 269.888C354.492 267.955 352.925 266.388 350.992 266.388C349.059 266.388 347.492 267.955 347.492 269.888C347.492 271.821 349.059 273.388 350.992 273.388C352.925 273.388 354.492 271.821 354.492 269.888Z" fill="#93EA20"/>
<path d="M354.492 243.234C354.492 241.301 352.925 239.734 350.992 239.734C349.059 239.734 347.492 241.301 347.492 243.234C347.492 245.167 349.059 246.734 350.992 246.734C352.925 246.734 354.492 245.167 354.492 243.234Z" fill="#93EA20"/>
<path d="M354.492 216.581C354.492 214.648 352.925 213.081 350.992 213.081C349.059 213.081 347.492 214.648 347.492 216.581C347.492 218.514 349.059 220.081 350.992 220.081C352.925 220.081 354.492 218.514 354.492 216.581Z" fill="#93EA20"/>
<path d="M354.492 189.928C354.492 187.995 352.925 186.428 350.992 186.428C349.059 186.428 347.492 187.995 347.492 189.928C347.492 191.861 349.059 193.428 350.992 193.428C352.925 193.428 354.492 191.861 354.492 189.928Z" fill="#93EA20"/>
<path d="M354.492 163.275C354.492 161.342 352.925 159.775 350.992 159.775C349.059 159.775 347.492 161.342 347.492 163.275C347.492 165.208 349.059 166.775 350.992 166.775C352.925 166.775 354.492 165.208 354.492 163.275Z" fill="#93EA20"/>
<path d="M354.492 136.622C354.492 134.689 352.925 133.122 350.992 133.122C349.059 133.122 347.492 134.689 347.492 136.622C347.492 138.555 349.059 140.122 350.992 140.122C352.925 140.122 354.492 138.555 354.492 136.622Z" fill="#93EA20"/>
<path d="M354.492 110.146C354.492 108.213 352.925 106.646 350.992 106.646C349.059 106.646 347.492 108.213 347.492 110.146C347.492 112.079 349.059 113.646 350.992 113.646C352.925 113.646 354.492 112.079 354.492 110.146Z" fill="#93EA20"/>
<path d="M381.304 483.112C381.304 481.179 379.737 479.612 377.804 479.612C375.871 479.612 374.304 481.179 374.304 483.112C374.304 485.045 375.871 486.612 377.804 486.612C379.737 486.612 381.304 485.045 381.304 483.112Z" fill="#93EA20"/>
<path d="M381.304 456.46C381.304 454.527 379.737 452.96 377.804 452.96C375.871 452.96 374.304 454.527 374.304 456.46C374.304 458.393 375.871 459.96 377.804 459.96C379.737 459.96 381.304 458.393 381.304 456.46Z" fill="#93EA20"/>
<path d="M381.304 429.806C381.304 427.873 379.737 426.306 377.804 426.306C375.871 426.306 374.304 427.873 374.304 429.806C374.304 431.739 375.871 433.306 377.804 433.306C379.737 433.306 381.304 431.739 381.304 429.806Z" fill="#93EA20"/>
<path d="M381.304 403.153C381.304 401.22 379.737 399.653 377.804 399.653C375.871 399.653 374.304 401.22 374.304 403.153C374.304 405.086 375.871 406.653 377.804 406.653C379.737 406.653 381.304 405.086 381.304 403.153Z" fill="#93EA20"/>
<path d="M381.304 376.5C381.304 374.567 379.737 373 377.804 373C375.871 373 374.304 374.567 374.304 376.5C374.304 378.433 375.871 380 377.804 380C379.737 380 381.304 378.433 381.304 376.5Z" fill="#93EA20"/>
<path d="M381.304 349.847C381.304 347.914 379.737 346.347 377.804 346.347C375.871 346.347 374.304 347.914 374.304 349.847C374.304 351.78 375.871 353.347 377.804 353.347C379.737 353.347 381.304 351.78 381.304 349.847Z" fill="#93EA20"/>
<path d="M381.304 323.194C381.304 321.261 379.737 319.694 377.804 319.694C375.871 319.694 374.304 321.261 374.304 323.194C374.304 325.127 375.871 326.694 377.804 326.694C379.737 326.694 381.304 325.127 381.304 323.194Z" fill="#93EA20"/>
<path d="M381.304 296.541C381.304 294.608 379.737 293.041 377.804 293.041C375.871 293.041 374.304 294.608 374.304 296.541C374.304 298.474 375.871 300.041 377.804 300.041C379.737 300.041 381.304 298.474 381.304 296.541Z" fill="#93EA20"/>
<path d="M381.304 269.888C381.304 267.955 379.737 266.388 377.804 266.388C375.871 266.388 374.304 267.955 374.304 269.888C374.304 271.821 375.871 273.388 377.804 273.388C379.737 273.388 381.304 271.821 381.304 269.888Z" fill="#93EA20"/>
<path d="M381.304 243.234C381.304 241.301 379.737 239.734 377.804 239.734C375.871 239.734 374.304 241.301 374.304 243.234C374.304 245.167 375.871 246.734 377.804 246.734C379.737 246.734 381.304 245.167 381.304 243.234Z" fill="#93EA20"/>
<path d="M381.304 216.581C381.304 214.648 379.737 213.081 377.804 213.081C375.871 213.081 374.304 214.648 374.304 216.581C374.304 218.514 375.871 220.081 377.804 220.081C379.737 220.081 381.304 218.514 381.304 216.581Z" fill="#93EA20"/>
<path d="M381.304 189.928C381.304 187.995 379.737 186.428 377.804 186.428C375.871 186.428 374.304 187.995 374.304 189.928C374.304 191.861 375.871 193.428 377.804 193.428C379.737 193.428 381.304 191.861 381.304 189.928Z" fill="#93EA20"/>
<path d="M381.304 163.275C381.304 161.342 379.737 159.775 377.804 159.775C375.871 159.775 374.304 161.342 374.304 163.275C374.304 165.208 375.871 166.775 377.804 166.775C379.737 166.775 381.304 165.208 381.304 163.275Z" fill="#93EA20"/>
<path d="M381.304 136.622C381.304 134.689 379.737 133.122 377.804 133.122C375.871 133.122 374.304 134.689 374.304 136.622C374.304 138.555 375.871 140.122 377.804 140.122C379.737 140.122 381.304 138.555 381.304 136.622Z" fill="#93EA20"/>
<path d="M381.304 110.146C381.304 108.213 379.737 106.646 377.804 106.646C375.871 106.646 374.304 108.213 374.304 110.146C374.304 112.079 375.871 113.646 377.804 113.646C379.737 113.646 381.304 112.079 381.304 110.146Z" fill="#93EA20"/>
<path d="M6.99988 110.113C6.99988 108.18 5.43286 106.613 3.49988 106.613C1.5669 106.613 -0.000119504 108.18 -0.000119673 110.113C-0.000119842 112.045 1.5669 113.613 3.49988 113.613C5.43286 113.613 6.99988 112.045 6.99988 110.113Z" fill="#93EA20"/>
<path d="M6.99988 83.4595C6.99988 81.5265 5.43287 79.9595 3.49988 79.9595C1.5669 79.9595 -0.000117174 81.5265 -0.000117343 83.4595C-0.000117512 85.3925 1.5669 86.9595 3.49988 86.9595C5.43287 86.9595 6.99988 85.3925 6.99988 83.4595Z" fill="#93EA20"/>
<path d="M6.99988 56.8063C6.99989 54.8733 5.43287 53.3063 3.49989 53.3063C1.5669 53.3063 -0.000114844 54.8733 -0.000115013 56.8063C-0.000115182 58.7393 1.5669 60.3063 3.49988 60.3063C5.43287 60.3063 6.99988 58.7393 6.99988 56.8063Z" fill="#93EA20"/>
<path d="M6.99989 30.1529C6.99989 28.2199 5.43287 26.6529 3.49989 26.6529C1.5669 26.6529 -0.000112514 28.2199 -0.000112683 30.1529C-0.000112852 32.0859 1.5669 33.6529 3.49989 33.6529C5.43287 33.6529 6.99989 32.0859 6.99989 30.1529Z" fill="#93EA20"/>
<path d="M6.99989 3.50003C6.99989 1.56704 5.43287 2.81754e-05 3.49989 2.80065e-05C1.56691 2.78375e-05 -0.000110184 1.56704 -0.000110353 3.50003C-0.000110522 5.43301 1.56691 7.00003 3.49989 7.00003C5.43287 7.00003 6.99989 5.43301 6.99989 3.50003Z" fill="#93EA20"/>
<path d="M33.8122 110.112C33.8122 108.179 32.2452 106.612 30.3122 106.612C28.3792 106.612 26.8122 108.179 26.8122 110.112C26.8122 112.045 28.3792 113.612 30.3122 113.612C32.2452 113.612 33.8122 112.045 33.8122 110.112Z" fill="#93EA20"/>
<path d="M33.8122 83.4595C33.8122 81.5265 32.2452 79.9595 30.3122 79.9595C28.3792 79.9595 26.8122 81.5265 26.8122 83.4595C26.8122 85.3925 28.3792 86.9595 30.3122 86.9595C32.2452 86.9595 33.8122 85.3925 33.8122 83.4595Z" fill="#93EA20"/>
<path d="M33.8122 56.8063C33.8122 54.8733 32.2452 53.3063 30.3122 53.3063C28.3792 53.3063 26.8122 54.8733 26.8122 56.8063C26.8122 58.7393 28.3792 60.3063 30.3122 60.3063C32.2452 60.3063 33.8122 58.7393 33.8122 56.8063Z" fill="#93EA20"/>
<path d="M33.8122 30.1529C33.8122 28.2199 32.2452 26.6529 30.3122 26.6529C28.3793 26.6529 26.8122 28.2199 26.8122 30.1529C26.8122 32.0859 28.3793 33.6529 30.3122 33.6529C32.2452 33.6529 33.8122 32.0859 33.8122 30.1529Z" fill="#93EA20"/>
<path d="M33.8122 3.50003C33.8122 1.56705 32.2452 3.05194e-05 30.3122 3.03505e-05C28.3793 3.01815e-05 26.8122 1.56705 26.8122 3.50003C26.8122 5.43301 28.3793 7.00003 30.3122 7.00003C32.2452 7.00003 33.8122 5.43301 33.8122 3.50003Z" fill="#93EA20"/>
<path d="M60.4467 110.112C60.4467 108.179 58.8797 106.612 56.9467 106.612C55.0137 106.612 53.4467 108.179 53.4467 110.112C53.4467 112.045 55.0137 113.612 56.9467 113.612C58.8797 113.612 60.4467 112.045 60.4467 110.112Z" fill="#93EA20"/>
<path d="M60.4467 83.4595C60.4467 81.5265 58.8796 79.9595 56.9467 79.9595C55.0137 79.9595 53.4467 81.5265 53.4467 83.4595C53.4467 85.3925 55.0137 86.9595 56.9467 86.9595C58.8796 86.9595 60.4467 85.3925 60.4467 83.4595Z" fill="#93EA20"/>
<path d="M60.4467 56.8063C60.4467 54.8733 58.8796 53.3063 56.9467 53.3063C55.0137 53.3063 53.4467 54.8733 53.4467 56.8063C53.4467 58.7393 55.0137 60.3063 56.9467 60.3063C58.8796 60.3063 60.4467 58.7393 60.4467 56.8063Z" fill="#93EA20"/>
<path d="M60.4467 30.1529C60.4467 28.2199 58.8796 26.6529 56.9467 26.6529C55.0137 26.6529 53.4467 28.2199 53.4467 30.1529C53.4467 32.0859 55.0137 33.6529 56.9467 33.6529C58.8796 33.6529 60.4467 32.0859 60.4467 30.1529Z" fill="#93EA20"/>
<path d="M60.4467 3.50003C60.4467 1.56705 58.8797 3.28479e-05 56.9467 3.26789e-05C55.0137 3.25099e-05 53.4467 1.56705 53.4467 3.50003C53.4467 5.43302 55.0137 7.00003 56.9467 7.00003C58.8797 7.00003 60.4467 5.43302 60.4467 3.50003Z" fill="#93EA20"/>
<path d="M87.2585 110.112C87.2585 108.179 85.6915 106.612 83.7585 106.612C81.8255 106.612 80.2585 108.179 80.2585 110.112C80.2585 112.045 81.8255 113.612 83.7585 113.612C85.6915 113.612 87.2585 112.045 87.2585 110.112Z" fill="#93EA20"/>
<path d="M87.2585 83.4595C87.2585 81.5266 85.6915 79.9595 83.7585 79.9595C81.8255 79.9595 80.2585 81.5266 80.2585 83.4595C80.2585 85.3925 81.8255 86.9595 83.7585 86.9595C85.6915 86.9595 87.2585 85.3925 87.2585 83.4595Z" fill="#93EA20"/>
<path d="M87.2585 56.8063C87.2585 54.8734 85.6915 53.3063 83.7585 53.3063C81.8255 53.3063 80.2585 54.8734 80.2585 56.8063C80.2585 58.7393 81.8255 60.3063 83.7585 60.3063C85.6915 60.3063 87.2585 58.7393 87.2585 56.8063Z" fill="#93EA20"/>
<path d="M87.2585 30.153C87.2585 28.22 85.6915 26.653 83.7585 26.653C81.8255 26.653 80.2585 28.22 80.2585 30.153C80.2585 32.0859 81.8255 33.653 83.7585 33.653C85.6915 33.653 87.2585 32.0859 87.2585 30.153Z" fill="#93EA20"/>
<path d="M87.2585 3.50007C87.2585 1.56708 85.6915 6.57094e-05 83.7585 6.55405e-05C81.8255 6.53715e-05 80.2585 1.56708 80.2585 3.50007C80.2585 5.43305 81.8255 7.00007 83.7585 7.00007C85.6915 7.00007 87.2585 5.43305 87.2585 3.50007Z" fill="#93EA20"/>
<path d="M113.893 110.112C113.893 108.179 112.326 106.612 110.393 106.612C108.46 106.612 106.893 108.179 106.893 110.112C106.893 112.045 108.46 113.612 110.393 113.612C112.326 113.612 113.893 112.045 113.893 110.112Z" fill="#93EA20"/>
<path d="M113.893 83.4595C113.893 81.5266 112.326 79.9595 110.393 79.9595C108.46 79.9595 106.893 81.5266 106.893 83.4595C106.893 85.3925 108.46 86.9595 110.393 86.9595C112.326 86.9595 113.893 85.3925 113.893 83.4595Z" fill="#93EA20"/>
<path d="M113.893 56.8063C113.893 54.8734 112.326 53.3063 110.393 53.3063C108.46 53.3063 106.893 54.8734 106.893 56.8063C106.893 58.7393 108.46 60.3063 110.393 60.3063C112.326 60.3063 113.893 58.7393 113.893 56.8063Z" fill="#93EA20"/>
<path d="M113.893 30.153C113.893 28.22 112.326 26.653 110.393 26.653C108.46 26.653 106.893 28.22 106.893 30.153C106.893 32.0859 108.46 33.653 110.393 33.653C112.326 33.653 113.893 32.0859 113.893 30.153Z" fill="#93EA20"/>
<path d="M113.893 3.50007C113.893 1.56708 112.326 6.80379e-05 110.393 6.78689e-05C108.46 6.77e-05 106.893 1.56708 106.893 3.50007C106.893 5.43305 108.46 7.00007 110.393 7.00007C112.326 7.00007 113.893 5.43305 113.893 3.50007Z" fill="#93EA20"/>
<path d="M140.706 110.112C140.706 108.179 139.139 106.612 137.206 106.612C135.273 106.612 133.706 108.179 133.706 110.112C133.706 112.045 135.273 113.612 137.206 113.612C139.139 113.612 140.706 112.045 140.706 110.112Z" fill="#93EA20"/>
<path d="M140.706 83.4595C140.706 81.5266 139.139 79.9595 137.206 79.9595C135.273 79.9595 133.706 81.5266 133.706 83.4595C133.706 85.3925 135.273 86.9595 137.206 86.9595C139.139 86.9595 140.706 85.3925 140.706 83.4595Z" fill="#93EA20"/>
<path d="M140.706 56.8063C140.706 54.8734 139.139 53.3063 137.206 53.3063C135.273 53.3063 133.706 54.8734 133.706 56.8063C133.706 58.7393 135.273 60.3063 137.206 60.3063C139.139 60.3063 140.706 58.7393 140.706 56.8063Z" fill="#93EA20"/>
<path d="M140.706 30.153C140.706 28.22 139.139 26.653 137.206 26.653C135.273 26.653 133.706 28.22 133.706 30.153C133.706 32.0859 135.273 33.653 137.206 33.653C139.139 33.653 140.706 32.0859 140.706 30.153Z" fill="#93EA20"/>
<path d="M140.706 3.50007C140.706 1.56709 139.139 7.03819e-05 137.206 7.0213e-05C135.273 7.0044e-05 133.706 1.56709 133.706 3.50007C133.706 5.43305 135.273 7.00007 137.206 7.00007C139.139 7.00007 140.706 5.43305 140.706 3.50007Z" fill="#93EA20"/>
<path d="M167.34 110.112C167.34 108.179 165.773 106.612 163.84 106.612C161.907 106.612 160.34 108.179 160.34 110.112C160.34 112.045 161.907 113.612 163.84 113.612C165.773 113.612 167.34 112.045 167.34 110.112Z" fill="#93EA20"/>
<path d="M167.34 83.4595C167.34 81.5265 165.773 79.9595 163.84 79.9595C161.907 79.9595 160.34 81.5265 160.34 83.4595C160.34 85.3925 161.907 86.9595 163.84 86.9595C165.773 86.9595 167.34 85.3925 167.34 83.4595Z" fill="#93EA20"/>
<path d="M167.34 56.8063C167.34 54.8734 165.773 53.3063 163.84 53.3063C161.907 53.3063 160.34 54.8734 160.34 56.8063C160.34 58.7393 161.907 60.3063 163.84 60.3063C165.773 60.3063 167.34 58.7393 167.34 56.8063Z" fill="#93EA20"/>
<path d="M167.34 30.1529C167.34 28.2199 165.773 26.6529 163.84 26.6529C161.907 26.6529 160.34 28.2199 160.34 30.1529C160.34 32.0859 161.907 33.6529 163.84 33.6529C165.773 33.6529 167.34 32.0859 167.34 30.1529Z" fill="#93EA20"/>
<path d="M167.34 3.50001C167.34 1.56703 165.773 1.16753e-05 163.84 1.15063e-05C161.907 1.13373e-05 160.34 1.56703 160.34 3.50001C160.34 5.43299 161.907 7.00001 163.84 7.00001C165.773 7.00001 167.34 5.433 167.34 3.50001Z" fill="#93EA20"/>
<path d="M194.152 110.112C194.152 108.179 192.585 106.612 190.652 106.612C188.719 106.612 187.152 108.179 187.152 110.112C187.152 112.045 188.719 113.612 190.652 113.612C192.585 113.612 194.152 112.045 194.152 110.112Z" fill="#93EA20"/>
<path d="M194.152 83.4595C194.152 81.5265 192.585 79.9595 190.652 79.9595C188.719 79.9595 187.152 81.5265 187.152 83.4595C187.152 85.3925 188.719 86.9595 190.652 86.9595C192.585 86.9595 194.152 85.3925 194.152 83.4595Z" fill="#93EA20"/>
<path d="M194.152 56.8063C194.152 54.8734 192.585 53.3063 190.652 53.3063C188.719 53.3063 187.152 54.8734 187.152 56.8063C187.152 58.7393 188.719 60.3063 190.652 60.3063C192.585 60.3063 194.152 58.7393 194.152 56.8063Z" fill="#93EA20"/>
<path d="M194.152 30.153C194.152 28.22 192.585 26.653 190.652 26.653C188.719 26.653 187.152 28.22 187.152 30.153C187.152 32.086 188.719 33.653 190.652 33.653C192.585 33.653 194.152 32.086 194.152 30.153Z" fill="#93EA20"/>
<path d="M194.152 3.50001C194.152 1.56703 192.585 1.40192e-05 190.652 1.38502e-05C188.719 1.36812e-05 187.152 1.56703 187.152 3.50001C187.152 5.433 188.719 7.00001 190.652 7.00001C192.585 7.00001 194.152 5.433 194.152 3.50001Z" fill="#93EA20"/>
<path d="M220.787 110.112C220.787 108.179 219.22 106.612 217.287 106.612C215.354 106.612 213.787 108.179 213.787 110.112C213.787 112.045 215.354 113.612 217.287 113.612C219.22 113.612 220.787 112.045 220.787 110.112Z" fill="#93EA20"/>
<path d="M220.787 83.4595C220.787 81.5265 219.22 79.9595 217.287 79.9595C215.354 79.9595 213.787 81.5265 213.787 83.4595C213.787 85.3925 215.354 86.9595 217.287 86.9595C219.22 86.9595 220.787 85.3925 220.787 83.4595Z" fill="#93EA20"/>
<path d="M220.787 56.8064C220.787 54.8734 219.22 53.3064 217.287 53.3064C215.354 53.3064 213.787 54.8734 213.787 56.8064C213.787 58.7393 215.354 60.3064 217.287 60.3064C219.22 60.3064 220.787 58.7393 220.787 56.8064Z" fill="#93EA20"/>
<path d="M220.787 30.153C220.787 28.22 219.22 26.653 217.287 26.653C215.354 26.653 213.787 28.22 213.787 30.153C213.787 32.086 215.354 33.653 217.287 33.653C219.22 33.653 220.787 32.086 220.787 30.153Z" fill="#93EA20"/>
<path d="M220.787 3.50002C220.787 1.56703 219.22 1.63477e-05 217.287 1.61787e-05C215.354 1.60097e-05 213.787 1.56703 213.787 3.50002C213.787 5.433 215.354 7.00002 217.287 7.00002C219.22 7.00002 220.787 5.433 220.787 3.50002Z" fill="#93EA20"/>
<path d="M247.599 110.112C247.599 108.179 246.032 106.612 244.099 106.612C242.166 106.612 240.599 108.179 240.599 110.112C240.599 112.045 242.166 113.612 244.099 113.612C246.032 113.612 247.599 112.045 247.599 110.112Z" fill="#93EA20"/>
<path d="M247.599 83.4595C247.599 81.5265 246.032 79.9595 244.099 79.9595C242.166 79.9595 240.599 81.5265 240.599 83.4595C240.599 85.3925 242.166 86.9595 244.099 86.9595C246.032 86.9595 247.599 85.3925 247.599 83.4595Z" fill="#93EA20"/>
<path d="M247.599 56.8064C247.599 54.8734 246.032 53.3064 244.099 53.3064C242.166 53.3064 240.599 54.8734 240.599 56.8064C240.599 58.7394 242.166 60.3064 244.099 60.3064C246.032 60.3064 247.599 58.7394 247.599 56.8064Z" fill="#93EA20"/>
<path d="M247.599 30.153C247.599 28.22 246.032 26.653 244.099 26.653C242.166 26.653 240.599 28.22 240.599 30.153C240.599 32.086 242.166 33.653 244.099 33.653C246.032 33.653 247.599 32.086 247.599 30.153Z" fill="#93EA20"/>
<path d="M247.599 3.50005C247.599 1.56707 246.032 4.92093e-05 244.099 4.90403e-05C242.166 4.88713e-05 240.599 1.56707 240.599 3.50005C240.599 5.43303 242.166 7.00005 244.099 7.00005C246.032 7.00005 247.599 5.43303 247.599 3.50005Z" fill="#93EA20"/>
<path d="M274.411 110.112C274.411 108.179 272.844 106.612 270.911 106.612C268.978 106.612 267.411 108.179 267.411 110.112C267.411 112.045 268.978 113.612 270.911 113.612C272.844 113.612 274.411 112.045 274.411 110.112Z" fill="#93EA20"/>
<path d="M274.411 83.4596C274.411 81.5266 272.844 79.9596 270.911 79.9596C268.978 79.9596 267.411 81.5266 267.411 83.4596C267.411 85.3926 268.978 86.9596 270.911 86.9596C272.844 86.9596 274.411 85.3926 274.411 83.4596Z" fill="#93EA20"/>
<path d="M274.411 56.8064C274.411 54.8734 272.844 53.3064 270.911 53.3064C268.978 53.3064 267.411 54.8734 267.411 56.8064C267.411 58.7394 268.978 60.3064 270.911 60.3064C272.844 60.3064 274.411 58.7394 274.411 56.8064Z" fill="#93EA20"/>
<path d="M274.411 30.153C274.411 28.22 272.844 26.653 270.911 26.653C268.978 26.653 267.411 28.22 267.411 30.153C267.411 32.086 268.978 33.653 270.911 33.653C272.844 33.653 274.411 32.086 274.411 30.153Z" fill="#93EA20"/>
<path d="M274.411 3.50005C274.411 1.56707 272.844 5.15533e-05 270.911 5.13843e-05C268.978 5.12153e-05 267.411 1.56707 267.411 3.50005C267.411 5.43303 268.978 7.00005 270.911 7.00005C272.844 7.00005 274.411 5.43304 274.411 3.50005Z" fill="#93EA20"/>
<path d="M301.046 110.112C301.046 108.179 299.479 106.612 297.546 106.612C295.613 106.612 294.046 108.179 294.046 110.112C294.046 112.045 295.613 113.612 297.546 113.612C299.479 113.612 301.046 112.045 301.046 110.112Z" fill="#93EA20"/>
<path d="M301.046 83.4596C301.046 81.5266 299.479 79.9596 297.546 79.9596C295.613 79.9596 294.046 81.5266 294.046 83.4596C294.046 85.3926 295.613 86.9596 297.546 86.9596C299.479 86.9596 301.046 85.3926 301.046 83.4596Z" fill="#93EA20"/>
<path d="M301.046 56.8064C301.046 54.8734 299.479 53.3064 297.546 53.3064C295.613 53.3064 294.046 54.8734 294.046 56.8064C294.046 58.7394 295.613 60.3064 297.546 60.3064C299.479 60.3064 301.046 58.7394 301.046 56.8064Z" fill="#93EA20"/>
<path d="M301.046 30.153C301.046 28.22 299.479 26.653 297.546 26.653C295.613 26.653 294.046 28.22 294.046 30.153C294.046 32.086 295.613 33.653 297.546 33.653C299.479 33.653 301.046 32.086 301.046 30.153Z" fill="#93EA20"/>
<path d="M301.046 3.50005C301.046 1.56707 299.479 5.38818e-05 297.546 5.37128e-05C295.613 5.35438e-05 294.046 1.56707 294.046 3.50005C294.046 5.43304 295.613 7.00005 297.546 7.00005C299.479 7.00005 301.046 5.43304 301.046 3.50005Z" fill="#93EA20"/>
<path d="M327.858 110.112C327.858 108.179 326.291 106.612 324.358 106.612C322.425 106.612 320.858 108.179 320.858 110.112C320.858 112.045 322.425 113.612 324.358 113.612C326.291 113.612 327.858 112.045 327.858 110.112Z" fill="#93EA20"/>
<path d="M327.858 83.4596C327.858 81.5266 326.291 79.9596 324.358 79.9596C322.425 79.9596 320.858 81.5266 320.858 83.4596C320.858 85.3926 322.425 86.9596 324.358 86.9596C326.291 86.9596 327.858 85.3926 327.858 83.4596Z" fill="#93EA20"/>
<path d="M327.858 56.8064C327.858 54.8734 326.291 53.3064 324.358 53.3064C322.425 53.3064 320.858 54.8734 320.858 56.8064C320.858 58.7394 322.425 60.3064 324.358 60.3064C326.291 60.3064 327.858 58.7394 327.858 56.8064Z" fill="#93EA20"/>
<path d="M327.858 30.153C327.858 28.22 326.291 26.653 324.358 26.653C322.425 26.653 320.858 28.22 320.858 30.153C320.858 32.086 322.425 33.653 324.358 33.653C326.291 33.653 327.858 32.086 327.858 30.153Z" fill="#93EA20"/>
<path d="M327.858 3.50006C327.858 1.56707 326.291 5.62257e-05 324.358 5.60568e-05C322.425 5.58878e-05 320.858 1.56707 320.858 3.50006C320.858 5.43304 322.425 7.00006 324.358 7.00006C326.291 7.00006 327.858 5.43304 327.858 3.50006Z" fill="#93EA20"/>
<path d="M354.492 110.112C354.492 108.179 352.925 106.612 350.992 106.612C349.059 106.612 347.492 108.179 347.492 110.112C347.492 112.045 349.059 113.612 350.992 113.612C352.925 113.612 354.492 112.045 354.492 110.112Z" fill="#93EA20"/>
<path d="M354.492 83.4595C354.492 81.5265 352.925 79.9595 350.992 79.9595C349.059 79.9595 347.492 81.5265 347.492 83.4595C347.492 85.3925 349.059 86.9595 350.992 86.9595C352.925 86.9595 354.492 85.3925 354.492 83.4595Z" fill="#93EA20"/>
<path d="M354.492 56.8064C354.492 54.8734 352.925 53.3064 350.992 53.3064C349.059 53.3064 347.492 54.8734 347.492 56.8064C347.492 58.7394 349.059 60.3064 350.992 60.3064C352.925 60.3064 354.492 58.7394 354.492 56.8064Z" fill="#93EA20"/>
<path d="M354.492 30.153C354.492 28.22 352.925 26.653 350.992 26.653C349.059 26.653 347.492 28.22 347.492 30.153C347.492 32.0859 349.059 33.653 350.992 33.653C352.925 33.653 354.492 32.0859 354.492 30.153Z" fill="#93EA20"/>
<path d="M354.492 3.50006C354.492 1.56708 352.925 5.85542e-05 350.992 5.83852e-05C349.059 5.82162e-05 347.492 1.56707 347.492 3.50006C347.492 5.43304 349.059 7.00006 350.992 7.00006C352.925 7.00006 354.492 5.43304 354.492 3.50006Z" fill="#93EA20"/>
<path d="M381.304 110.112C381.304 108.179 379.737 106.612 377.804 106.612C375.871 106.612 374.304 108.179 374.304 110.112C374.304 112.045 375.871 113.612 377.804 113.612C379.737 113.612 381.304 112.045 381.304 110.112Z" fill="#93EA20"/>
<path d="M381.304 83.4595C381.304 81.5266 379.737 79.9595 377.804 79.9595C375.871 79.9595 374.304 81.5265 374.304 83.4595C374.304 85.3925 375.871 86.9595 377.804 86.9595C379.737 86.9595 381.304 85.3925 381.304 83.4595Z" fill="#93EA20"/>
<path d="M381.304 56.8064C381.304 54.8734 379.737 53.3064 377.804 53.3064C375.871 53.3064 374.304 54.8734 374.304 56.8064C374.304 58.7394 375.871 60.3064 377.804 60.3064C379.737 60.3064 381.304 58.7394 381.304 56.8064Z" fill="#93EA20"/>
<path d="M381.304 30.153C381.304 28.22 379.737 26.653 377.804 26.653C375.871 26.653 374.304 28.22 374.304 30.153C374.304 32.0859 375.871 33.653 377.804 33.653C379.737 33.653 381.304 32.0859 381.304 30.153Z" fill="#93EA20"/>
<path d="M381.304 3.50006C381.304 1.56708 379.737 6.08982e-05 377.804 6.07292e-05C375.871 6.05602e-05 374.304 1.56708 374.304 3.50006C374.304 5.43304 375.871 7.00006 377.804 7.00006C379.737 7.00006 381.304 5.43304 381.304 3.50006Z" fill="#93EA20"/>
</g>
<defs>
<clipPath id="clip0">
<rect width="126" height="314" fill="white"/>
</clipPath>
</defs>
</svg>
