<svg width="229" height="82" viewBox="0 0 229 82" fill="none" xmlns="http://www.w3.org/2000/svg">
<path d="M0 10.5C0 4.97715 4.47715 0.5 10 0.5H219C224.523 0.5 229 4.97715 229 10.5V71.5C229 77.0229 224.523 81.5 219 81.5H10C4.47716 81.5 0 77.0229 0 71.5V10.5Z" fill="#00B336"/>
<path fill-rule="evenodd" clip-rule="evenodd" d="M64.8462 44.3783H85.439C85.8292 44.3739 89.0165 44.1163 89.0165 40.5275C89.0209 31.6908 82.1596 24.5 73.7287 24.5C65.3022 24.5 58.4452 31.6908 58.4452 40.5318C58.4452 40.6539 58.4501 40.9083 58.4539 41.1077L58.4539 41.1097C58.4564 41.2374 58.4584 41.3421 58.4584 41.3745C58.4452 51.4686 64.9602 56.8999 73.5796 57.4019C73.9917 57.4238 74.3951 57.4369 74.7897 57.4369C78.1042 57.4369 80.9013 56.5811 83.9396 54.6688C84.2509 54.4767 85.4653 53.669 86.706 52.0755C87.6925 50.8093 87.7802 48.9101 86.706 47.9234C85.1584 46.5001 83.5669 47.2685 82.1464 48.4735L82.1246 48.492C79.9036 50.3736 78.1729 51.8397 73.7374 51.8441C69.5417 51.8441 65.574 49.4602 64.6314 44.697C64.5963 44.5311 64.6928 44.3783 64.8462 44.3783ZM64.6182 38.4624C65.1926 33.8344 68.3887 29.7304 73.7199 29.7304C79.0512 29.7304 82.427 33.7515 82.9619 38.4624C82.9794 38.6326 82.8698 38.7942 82.7032 38.7942H64.8769C64.7103 38.7942 64.5963 38.637 64.6182 38.4624Z" fill="white"/>
<path d="M147.296 28.2678L159.533 52.3068C160.195 53.6079 159.901 55.1752 158.901 56.1445C158.893 56.1576 158.88 56.1663 158.866 56.1794C158.818 56.2231 158.77 56.2667 158.722 56.306C158.709 56.316 158.697 56.3255 158.684 56.335L158.656 56.3562C158.647 56.3629 158.638 56.3696 158.629 56.3764C158.616 56.3862 158.603 56.3961 158.59 56.4064C158.57 56.4233 158.55 56.4375 158.527 56.4532L158.507 56.4676C158.489 56.4785 158.473 56.4905 158.456 56.5025C158.447 56.5091 158.438 56.516 158.429 56.5224C158.421 56.5276 158.414 56.5326 158.406 56.5374C158.4 56.5419 158.394 56.5458 158.388 56.5494C158.38 56.5545 158.371 56.5589 158.362 56.5632L158.349 56.5697C158.344 56.5719 158.34 56.5742 158.336 56.5767C158.327 56.5811 158.319 56.5865 158.312 56.592C158.304 56.5974 158.296 56.6029 158.288 56.6073C158.278 56.6139 158.267 56.6199 158.256 56.6255C158.238 56.6346 158.219 56.6428 158.2 56.6509C158.121 56.6946 158.042 56.7339 157.959 56.7688C157.954 56.7711 157.949 56.7731 157.944 56.775C157.938 56.7771 157.932 56.7791 157.926 56.7811C157.916 56.7839 157.907 56.7869 157.897 56.7906C157.56 56.9173 157.214 56.9827 156.872 56.9827C155.793 56.9827 154.75 56.3715 154.206 55.3062L143.052 32.2452C143.028 32.1948 143.004 32.1423 142.979 32.0886C142.797 31.6949 142.584 31.2373 142.176 31.1144C142 31.062 141.742 31.0532 141.496 31.1275C141.099 31.2476 140.861 31.7801 140.761 32.0054C140.748 32.034 140.737 32.0577 140.729 32.0749L140.702 32.1273L140.685 32.1666L136.086 41.3962L135.459 42.7191C135.393 42.8894 135.507 43.0815 135.687 43.0815H144.087C145.591 43.0815 146.814 44.3607 146.814 45.9412C146.814 47.5173 145.591 48.8009 144.087 48.8009H132.837C132.692 48.8009 132.561 48.8882 132.495 49.0236L129.948 54.3413L129.496 55.2931C129.347 55.59 129.159 55.8476 128.94 56.0703C128.929 56.0812 128.918 56.091 128.907 56.1008C128.896 56.1106 128.885 56.1205 128.874 56.1314C128.826 56.1794 128.777 56.2274 128.725 56.2711C128.663 56.3235 128.598 56.3715 128.532 56.4195C128.523 56.4283 128.51 56.437 128.497 56.4457C127.576 57.0832 126.357 57.1748 125.327 56.5549C125.007 56.3628 124.744 56.1183 124.525 55.8345C124.503 55.8083 124.481 55.7821 124.463 55.7559C124.454 55.7428 124.446 55.7308 124.437 55.7188C124.428 55.7068 124.419 55.6948 124.411 55.6817C123.74 54.7299 123.604 53.4201 124.169 52.3068L124.187 52.2719C124.195 52.259 124.201 52.2446 124.207 52.2297C124.212 52.2192 124.217 52.2084 124.222 52.1976L136.397 28.2721C136.792 27.4732 137.335 26.7833 137.98 26.2376C139.054 25.3207 140.409 24.8012 141.851 24.8012C144.148 24.8012 146.235 26.1284 147.296 28.2678Z" fill="white"/>
<path d="M201.073 24.8187C199.026 24.81 197.233 26.0848 196.373 27.8356C194.547 31.5455 190.381 40.0935 187.751 45.49C186.398 48.2667 185.451 50.2094 185.439 50.2286C185.433 50.2393 185.425 50.253 185.417 50.2688C185.341 50.4086 185.171 50.722 184.856 50.722C184.527 50.722 184.334 50.3553 184.273 50.2243L183.183 47.9812L183.182 47.9782L183.18 47.9738C180.318 42.0827 175.918 33.0254 173.466 28.0452C172.392 25.8578 170.59 24.8143 168.643 24.8143H168.639C165.644 24.8143 163.22 27.3335 163.22 30.7608V53.7389C163.22 55.136 164.022 56.4283 165.254 56.8344C167.262 57.4893 168.985 55.7429 168.985 53.6778L168.564 31.2803C168.564 31.0489 168.845 30.966 168.95 31.1668L180.055 53.5512C181.086 55.6948 182.874 56.9741 184.856 56.9741C186.833 56.9741 188.622 55.6948 189.657 53.5512L200.766 31.1712C200.876 30.9616 201.165 31.0446 201.165 31.2891L200.74 53.8131C200.74 55.5944 202.077 57.0308 203.713 56.9741C205.291 56.9217 206.505 55.4111 206.505 53.6778V30.7695C206.51 27.3073 204.077 24.8318 201.073 24.8187Z" fill="white"/>
<path d="M56.6345 25.1724C55.1526 24.3691 53.3332 24.9803 52.5703 26.5346L41.6843 49.8751C41.43 50.3772 41.2108 50.7221 40.632 50.7221C40.0533 50.7221 39.8297 50.3772 39.5798 49.8751L28.6981 26.5302C27.9353 24.9759 26.1158 24.3691 24.6339 25.168C23.152 25.9714 22.5733 27.8793 23.3362 29.4292L35.178 53.4857C36.2346 55.6381 38.3259 56.9741 40.6364 56.9741C42.9425 56.9741 45.0338 55.6381 46.0948 53.4857L57.9366 29.4292C58.6951 27.8837 58.112 25.9758 56.6345 25.1724Z" fill="white"/>
<path fill-rule="evenodd" clip-rule="evenodd" d="M119.316 44.3783H98.7233C98.5654 44.3783 98.469 44.5311 98.5041 44.697C99.4467 49.4602 103.414 51.8441 107.61 51.8441C112.046 51.8397 113.776 50.3736 115.997 48.492L116.019 48.4735C117.44 47.2685 119.031 46.5001 120.579 47.9234C121.653 48.9101 121.565 50.8093 120.579 52.0755C119.338 53.669 118.124 54.4767 117.812 54.6688C114.774 56.5811 111.977 57.4369 108.662 57.4369C108.268 57.4369 107.864 57.4238 107.452 57.4019C98.8329 56.8999 92.3179 51.4686 92.331 41.3745C92.331 41.342 92.329 41.2367 92.3266 41.1085C92.3228 40.909 92.3179 40.6541 92.3179 40.5318C92.3179 31.6908 99.1748 24.5 107.606 24.5C116.032 24.5 122.894 31.6908 122.894 40.5275C122.894 44.1163 119.706 44.3739 119.316 44.3783ZM107.593 29.7304C102.261 29.7304 99.0652 33.8344 98.4909 38.4624C98.469 38.637 98.583 38.7942 98.7452 38.7942H116.576C116.743 38.7942 116.852 38.6326 116.835 38.4624C116.3 33.7515 112.924 29.7304 107.593 29.7304Z" fill="white"/>
</svg>
